<?xml version="1.0" encoding="utf-8" ?>
<svg baseProfile="full" height="200mm" version="1.1" viewBox="0,0,200,200" width="200mm" xmlns="http://www.w3.org/2000/svg" xmlns:ev="http://www.w3.org/2001/xml-events" xmlns:xlink="http://www.w3.org/1999/xlink"><defs /><rect fill="#1a1a1a" height="200" width="200" x="0" y="0" /><text alignment-baseline="middle" fill="#e1ed5e" style="dominant-baseline: central; font-size:9.0px; font-family:Arial;" text-anchor="middle" x="100.0" y="100.0">2025</text><line stroke="#e1ed5e" stroke-width="0.3" x1="100.0" x2="100.0" y1="15.0" y2="10.0" /><path d="M 100.0 14.0 a86.0,86.0 0 0,1 42.46469731375804,11.215312516191453" fill="none" id="id85" stroke="none" /><text fill="#e1ed5e" style="font-size:6.75px; font-family:Arial;" text-anchor="middle"><textPath startOffset="22.20632615414155" xlink:href="#id85">January</textPath></text><path d="M 100.36148047927253 79.00311137660856 l 1.0724375932786483 -62.29341276443596 a83.30264357338194,83.30264357338194 0 0,0 1.433493171679793,0.03702289940768107 l -2.144557400153309 62.26572307288592" fill="#4cd9ff" stroke="none" /><path d="M 101.08401301168833 79.027996857942 l 2.448028602968246 -47.36111375022773 a68.42433910665451,68.42433910665451 0 0,0 1.1757189682261349,0.07092257891263208 l -3.2629096200339927 47.3119579019348" fill="#37ff79" stroke="none" /><path d="M 101.80526077348638 79.07773832637324 l 5.415782320459128 -62.76678502088029 a84.0,84.0 0 0,0 1.4394994916390231,0.13669782193928715 l -6.4954069391883955 62.66426165442583" fill="#4dd2ff" stroke="none" /><path d="M 102.52436894288641 79.15227682838746 l 5.752645295455782 -47.508727661263286 a68.85574293527803,68.85574293527803 0 0,0 1.1754176047593858,0.15260293980890416 l -6.569577628723014 47.40266639829025" fill="#38ff7f" stroke="none" /><path d="M 103.59715602781102 79.31037775812273 l 8.048747866890105 -46.293669665312585 a67.98814949863264,67.98814949863264 0 0,0 1.1512817937571014,0.2103893890010795 l -8.844424781750106 46.14826479496077" fill="#37ff74" stroke="none" /><path d="M 104.66035177308747 79.52364482259891 l 10.65450848292492 -46.81309707066796 a69.01025524156792,69.01025524156792 0 0,0 1.1560082452692355,0.2735898025267893 l -11.458740415156678 46.6227613560003" fill="#38ff81" stroke="none" /><path d="M 105.71112130821622 79.79150937346287 l 12.470905338738053 -44.12761698473427 a66.8559708295351,66.8559708295351 0 0,0 1.1047464705450418,0.32250578889496756 l -13.228642027006522 43.9064128669206" fill="#35ff65" stroke="none" /><path d="M 106.40334571778207 80.00007090966166 l 18.798310112305074 -58.71381709412292 a82.64972652689153,82.64972652689153 0 0,0 1.3511938501737335,0.4454673684081649 l -19.806186784721227 58.38153600145552" fill="#4be0ff" stroke="none" /><path d="M 107.08798089147638 80.2323363322302 l 16.624541195618992 -46.364168303722465 a70.25455788514131,70.25455788514131 0 0,0 1.134837510936835,0.41797023256575994 l -17.420161032328405 46.07113480335038" fill="#3aff90" stroke="none" /><path d="M 108.09893153111575 80.62456947434976 l 3.096557230805553 -7.4080302153026585 a29.029170464904286,29.029170464904286 0 0,0 0.45937451635054094,0.1966801941235806 l -3.2236155049464092 7.353630493216287" fill="#ff0000" stroke="none" /><path d="M 109.08828744355905 81.06846463323043 l 23.795063305718937 -49.56677320389945 a75.98245214220603,75.98245214220603 0 0,0 1.1742137582452679,0.5761815916165901 l -24.64474833097464 49.14983645214803" fill="#42ffd5" stroke="none" /><line stroke="#e1ed5e" stroke-width="0.3" x1="143.23703022742887" x2="145.7803849466894" y1="26.81831364943548" y2="22.513508569990506" /><path d="M 143.74570117128098 25.957352633546492 a86.0,86.0 0 0,1 28.547481713284135,27.462654790039103" fill="none" id="id86" stroke="none" /><text fill="#e1ed5e" style="font-size:6.75px; font-family:Arial;" text-anchor="middle"><textPath startOffset="19.985693538727396" xlink:href="#id86">February</textPath></text><path d="M 112.77801427241765 83.33499621200491 l 6.000042318370874 -7.825216487636844 a30.860756608933457,30.860756608933457 0 0,0 0.4187767122235472,0.32686186641661963 l -6.133851585753852 7.720776231997" fill="#ff1e03" stroke="none" /><path d="M 115.68641384162765 86.03803664274999 l 10.804198829062207 -9.616463627620178 a35.463992707383774,35.463992707383774 0 0,0 0.40193899116062826,0.45948574907672524 l -10.968129683800685 9.429062322340505" fill="#ff6709" stroke="none" /><line stroke="#e1ed5e" stroke-width="0.3" x1="172.23445277983987" x2="176.4835382374775" y1="55.19839476539836" y2="52.563006222186495" /><path d="M 173.08426987136738 54.67131705675599 a86.0,86.0 0 0,1 12.851231095245387,41.99856678651699" fill="none" id="id87" stroke="none" /><text fill="#e1ed5e" style="font-size:6.75px; font-family:Arial;" text-anchor="middle"><textPath startOffset="22.20632615414155" xlink:href="#id87">March</textPath></text><line stroke="#e1ed5e" stroke-width="0.3" x1="184.98032266829074" x2="189.97916517819016" y1="98.17113171792111" y2="98.06355123074" /><path d="M 185.9800911702706 98.14961562048488 a86.0,86.0 0 0,1 -9.607161424134198,41.387399972396054" fill="none" id="id88" stroke="none" /><text fill="#e1ed5e" style="font-size:6.75px; font-family:Arial;" text-anchor="middle"><textPath startOffset="21.466115282336823" xlink:href="#id88">April</textPath></text><line stroke="#e1ed5e" stroke-width="0.3" x1="174.80103733775053" x2="179.2010983576182" y1="140.37084112569926" y2="142.7455964860345" /><path d="M 175.68104954172406 140.8457921977663 a86.0,86.0 0 0,1 -30.038265399797805,32.042727171017184" fill="none" id="id89" stroke="none" /><text fill="#e1ed5e" style="font-size:6.75px; font-family:Arial;" text-anchor="middle"><textPath startOffset="22.206326154141568" xlink:href="#id89">May</textPath></text><line stroke="#e1ed5e" stroke-width="0.3" x1="143.8653032363475" x2="146.44561519142675" y1="172.8068346515853" y2="177.08958963109032" /><path d="M 144.38136562736335 173.6633856474863 a86.0,86.0 0 0,1 -40.68145358897372,12.25698825130547" fill="none" id="id90" stroke="none" /><text fill="#e1ed5e" style="font-size:6.75px; font-family:Arial;" text-anchor="middle"><textPath startOffset="21.466115282336833" xlink:href="#id90">June</textPath></text><line stroke="#e1ed5e" stroke-width="0.3" x1="102.19456741930631" x2="102.32365962044197" y1="184.97166512339345" y2="189.96999836594603" /><path d="M 102.22038585953345 185.97133177190398 a86.0,86.0 0 0,1 -42.740103519485714,-10.115201625700543" fill="none" id="id91" stroke="none" /><text fill="#e1ed5e" style="font-size:6.75px; font-family:Arial;" text-anchor="middle"><textPath startOffset="22.20632615414155" xlink:href="#id91">July</textPath></text><line stroke="#e1ed5e" stroke-width="0.3" x1="58.666819895761336" x2="56.23545636021788" y1="174.27360380694188" y2="178.64263932499728" /><path d="M 58.180547188652646 175.14741091055294 a86.0,86.0 0 0,1 -31.652253787137756,-30.449443065178592" fill="none" id="id92" stroke="none" /><text fill="#e1ed5e" style="font-size:6.75px; font-family:Arial;" text-anchor="middle"><textPath startOffset="22.20632615414155" xlink:href="#id92">August</textPath></text><line stroke="#e1ed5e" stroke-width="0.3" x1="26.63291911575756" x2="22.317208475507996" y1="142.92168965132927" y2="145.44649492493687" /><path d="M 25.769776987707644 143.4266507060508 a86.0,86.0 0 0,1 -11.730757126820373,-40.83630448921669" fill="none" id="id93" stroke="none" /><text fill="#e1ed5e" style="font-size:6.75px; font-family:Arial;" text-anchor="middle"><textPath startOffset="21.46611528233685" xlink:href="#id93">September</textPath></text><line stroke="#e1ed5e" stroke-width="0.3" x1="15.007084014347285" x2="10.007500721073583" y1="101.09737516637583" y2="101.16192664675087" /><path d="M 14.007167355692545 101.11028546245083 a86.0,86.0 0 0,1 10.666146001902534,-42.60595125391555" fill="none" id="id94" stroke="none" /><text fill="#e1ed5e" style="font-size:6.75px; font-family:Arial;" text-anchor="middle"><textPath startOffset="22.20632615414155" xlink:href="#id94">October</textPath></text><line stroke="#e1ed5e" stroke-width="0.3" x1="26.266209847984243" x2="21.928928074336255" y1="57.711370442889674" y2="55.22380399835377" /><path d="M 25.398753493254645 57.213857153982495 a86.0,86.0 0 0,1 29.58750427330803,-30.492523968695096" fill="none" id="id95" stroke="none" /><text fill="#e1ed5e" style="font-size:6.75px; font-family:Arial;" text-anchor="middle"><textPath startOffset="21.46611528233685" xlink:href="#id95">November</textPath></text><line stroke="#e1ed5e" stroke-width="0.3" x1="56.762969772571076" x2="54.21961505331055" y1="26.818313649435495" y2="22.513508569990535" /><path d="M 56.25429882871897 25.957352633546506 a86.0,86.0 0 0,1 42.265352541879196,-11.944610805530505" fill="none" id="id96" stroke="none" /><text fill="#e1ed5e" style="font-size:6.75px; font-family:Arial;" text-anchor="middle"><textPath startOffset="22.20632615414155" xlink:href="#id96">December</textPath></text></svg>