<?xml version="1.0" encoding="utf-8" ?>
<svg baseProfile="full" height="200mm" version="1.1" viewBox="0,0,200,200" width="200mm" xmlns="http://www.w3.org/2000/svg" xmlns:ev="http://www.w3.org/2001/xml-events" xmlns:xlink="http://www.w3.org/1999/xlink"><defs /><rect fill="#1a1a1a" height="200" width="200" x="0" y="0" /><text alignment-baseline="middle" fill="#e1ed5e" style="dominant-baseline: central; font-size:9.0px; font-family:Arial;" text-anchor="middle" x="100.0" y="100.0">2024</text><line stroke="#e1ed5e" stroke-width="0.3" x1="100.0" x2="100.0" y1="15.0" y2="10.0" /><path d="M 100.0 14.0 a86.0,86.0 0 0,1 42.35913384403234,11.155469271406648" fill="none" id="id73" stroke="none" /><text fill="#e1ed5e" style="font-size:6.75px; font-family:Arial;" text-anchor="middle"><textPath startOffset="22.145653131862478" xlink:href="#id73">January</textPath></text><line stroke="#e1ed5e" stroke-width="0.3" x1="143.13028292997686" x2="145.6673583964461" y1="26.7553504044142" y2="22.446841604673864" /><path d="M 143.63769802327073 25.89364864446614 a86.0,86.0 0 0,1 29.32050498858742,28.57503671076993" fill="none" id="id74" stroke="none" /><text fill="#e1ed5e" style="font-size:6.75px; font-family:Arial;" text-anchor="middle"><textPath startOffset="20.669276256404974" xlink:href="#id74">February</textPath></text><line stroke="#e1ed5e" stroke-width="0.3" x1="172.87174338648825" x2="177.1583165268699" y1="56.24261187166439" y2="53.66864786411523" /><path d="M 173.72905801456457 55.72781907015455 a86.0,86.0 0 0,1 12.242430191666344,42.057860355516425" fill="none" id="id75" stroke="none" /><text fill="#e1ed5e" style="font-size:6.75px; font-family:Arial;" text-anchor="middle"><textPath startOffset="22.145653131862474" xlink:href="#id75">March</textPath></text><line stroke="#e1ed5e" stroke-width="0.3" x1="184.99686870605535" x2="189.99668451229388" y1="99.2704041080226" y2="99.22748670261217" /><path d="M 185.99683186730306 99.26182062694052 a86.0,86.0 0 0,1 -10.086455211305974,41.156179273409016" fill="none" id="id76" stroke="none" /><text fill="#e1ed5e" style="font-size:6.75px; font-family:Arial;" text-anchor="middle"><textPath startOffset="21.40746469413373" xlink:href="#id76">April</textPath></text><line stroke="#e1ed5e" stroke-width="0.3" x1="174.33088141563837" x2="178.70328620479359" y1="141.23008692659167" y2="143.65538615756765" /><path d="M 175.20536237346943 141.71514677278685 a86.0,86.0 0 0,1 -30.301960400862466,31.631185727798858" fill="none" id="id77" stroke="none" /><text fill="#e1ed5e" style="font-size:6.75px; font-family:Arial;" text-anchor="middle"><textPath startOffset="22.145653131862474" xlink:href="#id77">May</textPath></text><line stroke="#e1ed5e" stroke-width="0.3" x1="143.1302829299769" x2="145.66735839644613" y1="173.24464959558577" y2="177.55315839532614" /><path d="M 143.63769802327073 174.10635135553383 a86.0,86.0 0 0,1 -40.68552437913181,11.842963189579606" fill="none" id="id78" stroke="none" /><text fill="#e1ed5e" style="font-size:6.75px; font-family:Arial;" text-anchor="middle"><textPath startOffset="21.407464694133747" xlink:href="#id78">June</textPath></text><line stroke="#e1ed5e" stroke-width="0.3" x1="101.45913802915013" x2="101.54496967792366" y1="184.9874750549273" y2="189.98673829345242" /><path d="M 101.47630435890484 185.9873277026323 a86.0,86.0 0 0,1 -42.54439059252881,-10.42667462771756" fill="none" id="id79" stroke="none" /><text fill="#e1ed5e" style="font-size:6.75px; font-family:Arial;" text-anchor="middle"><textPath startOffset="22.145653131862474" xlink:href="#id79">July</textPath></text><line stroke="#e1ed5e" stroke-width="0.3" x1="58.13341422392154" x2="55.67067388415222" y1="173.97424548756322" y2="178.32567169271397" /><path d="M 57.64086615596768 174.84453072859336 a86.0,86.0 0 0,1 -31.369924170532247,-30.572349798747897" fill="none" id="id80" stroke="none" /><text fill="#e1ed5e" style="font-size:6.75px; font-family:Arial;" text-anchor="middle"><textPath startOffset="22.145653131862474" xlink:href="#id80">August</textPath></text><path d="M 84.58840730492382 114.26474011684316 l -38.27331013823725 35.42520447660933 a73.1516191613192,73.1516191613192 0 0,0 -0.8450833807464397,-0.9288946722590039 l 38.875791219825565 -34.762972228792655" fill="#37ff75" stroke="none" /><path d="M 84.3458050057657 113.99807769240083 l -41.651076050918 37.24464903801101 a76.87464557528727,76.87464557528727 0 0,0 -0.8712054813820433,-0.9912719128283645 l 42.28429259625864 -36.524164847371345" fill="#3effb9" stroke="none" /><path d="M 84.1078160697243 113.72728997021213 l -34.64216246374233 29.923074853736537 a66.77630204447098,66.77630204447098 0 0,0 -0.741870204565058,-0.873921235571541 l 35.1507272318145 -29.32398683571544" fill="#5dff2a" stroke="none" /><path d="M 83.8745106332314 113.45245675266167 l -35.54137108206652 29.649875829325662 a67.28503208476347,67.28503208476347 0 0,0 -0.7322956238382634,-0.8932815914797904 l 36.04511352514341 -29.035391956147375" fill="#54ff2b" stroke="none" /><path d="M 83.64595745247003 113.17365903436017 l -19.840757284569893 15.982309614933612 a46.47724220265633,46.47724220265633 0 0,0 -0.49516758533033084,-0.6256280682160889 l 20.112191300541784 -15.639361602802843" fill="#ff0000" stroke="none" /><path d="M 83.4222238831116 112.89097897827486 l -41.49103255957436 32.263677874591906 a73.55902104163557,73.55902104163557 0 0,0 -0.7665831572721784,-1.0034819605192078 l 42.038767694200835 -31.546675000831826" fill="#38ff7d" stroke="none" /><path d="M 83.20337586046588 112.60449989151573 l -42.115636291964215 31.60435862964442 a73.65512610058201,73.65512610058201 0 0,0 -0.7502229866767997,-1.0178215659235221 l 42.65196129822485 -30.876730754452016" fill="#38ff7f" stroke="none" /><path d="M 82.98947788004972 112.3143062007846 l -42.343956022810126 30.65375868774129 a73.27488434562005,73.27488434562005 0 0,0 -0.7288579522268273,-1.0252299871890682 l 42.863929073566915 -29.922351473842717" fill="#37ff78" stroke="none" /><path d="M 82.78059297857968 112.02048342749411 l -42.714887795064854 29.818309086319275 a73.09312042978661,73.09312042978661 0 0,0 -0.709387052942093,-1.0350169105314362 l 43.220464584822274 -29.080657440717786" fill="#37ff74" stroke="none" /><path d="M 82.576782715395 111.72311816256416 l -43.194463663639446 29.063162860561736 a73.06178182360841,73.06178182360841 0 0,0 -0.6912185951074692,-1.0465930522353744 l 43.68700669766764 -28.3173899299873" fill="#37ff74" stroke="none" /><path d="M 82.37810715431573 111.42229804090323 l -44.16649609659265 28.628189165343922 a73.63318907625728,73.63318907625728 0 0,0 -0.6784152093057888,-1.0665813907998694 l 44.65142899752433 -27.865794099865383" fill="#38ff7e" stroke="none" /><path d="M 82.18462484594161 111.11811171558189 l -44.60711875737596 27.838141232841604 a73.58095806596032,73.58095806596032 0 0,0 -0.6595377863846296,-1.0773054078703903 l 45.07842450821599 -27.068298708846655" fill="#38ff7d" stroke="none" /><path d="M 81.99639281039703 110.81064883170644 l -44.99603223534907 27.018824516312353 a73.48485300701388,73.48485300701388 0 0,0 -0.6401100724872505,-1.0870468445118298 l 45.45321601796609 -26.242426503506966" fill="#37ff7c" stroke="none" /><line stroke="#e1ed5e" stroke-width="0.3" x1="26.387840678322732" x2="22.057713659400548" y1="142.50000000000003" y2="145.00000000000006" /><path d="M 25.521815274538298 143.00000000000003 a86.0,86.0 0 0,1 -11.493303480769221,-40.785679425670985" fill="none" id="id81" stroke="none" /><text fill="#e1ed5e" style="font-size:6.75px; font-family:Arial;" text-anchor="middle"><textPath startOffset="21.40746469413373" xlink:href="#id81">September</textPath></text><path d="M 81.81346652052679 110.50000000000001 l -46.362406991794415 26.767348156991527 a74.534696313983,74.534696313983 0 0,0 -0.6302321530298781,-1.1135598267252442 l 46.81507250984567 -25.96753156016716" fill="#3aff8f" stroke="none" /><path d="M 81.1358732173502 109.22738970284198 l -47.06976389317502 23.024180216099904 a73.39919415012686,73.39919415012686 0 0,0 -0.5439255742279633,-1.1365952521960647 l 47.4580687253629 -22.212772461838732" fill="#37ff7a" stroke="none" /><path d="M 80.9802524753101 108.90220220490708 l -48.04749829845554 22.488655264089985 a74.04999253842709,74.04999253842709 0 0,0 -0.5289832980062498,-1.1559239724293562 l 48.426466061316845 -21.66054230944594" fill="#39ff86" stroke="none" /><path d="M 80.68587082218212 108.24405325689762 l -51.5581469531124 22.0071070973563 a77.05849873153261,77.05849873153261 0 0,0 -0.5088582015657898,-1.2210744404340148 l 51.92833099921467 -21.118800147481004" fill="#3fffbc" stroke="none" /><path d="M 80.28708602549918 107.23885506374661 l -48.86896387769107 17.94536044156972 a73.05969258319655,73.05969258319655 0 0,0 -0.42221485088278643,-1.181010082359585 l 49.1698188986178 -17.103815402829213" fill="#37ff74" stroke="none" /><path d="M 79.94057633289273 106.21446072829308 l -48.71517300163378 15.092085122419373 a71.99940307416804,71.99940307416804 0 0,0 -0.35562109735212805,-1.183746973591652 l 48.96707041898954 -14.253600545236997" fill="#34ff5f" stroke="none" /><path d="M 79.83685265289637 105.86919833188381 l -51.38227505570174 14.956631415414392 a74.51484853007014,74.51484853007014 0 0,0 -0.3469606786716616,-1.2312410472144213 l 51.63145422644798 -14.072382444296975" fill="#3aff8f" stroke="none" /><path d="M 79.64726062577567 105.17358676015961 l -51.1415349325756 12.999978192444024 a73.76794508282345,73.76794508282345 0 0,0 -0.30143856339844294,-1.229972204827629 l 51.35716102249034 -12.120150163008294" fill="#38ff81" stroke="none" /><path d="M 79.34024301695615 103.76489593502545 l -61.97927094913153 11.294687805076363 a84.0,84.0 0 0,0 -0.24634073003106272,-1.4208278683176294 l 62.16402649665483 -10.22906690383814" fill="#4dd2ff" stroke="none" /><line stroke="#e1ed5e" stroke-width="0.3" x1="15.003131293944662" x2="10.003315487706104" y1="100.72959589197737" y2="100.7725132973878" /><path d="M 14.003168132696942 100.73817937305945 a86.0,86.0 0 0,1 10.791469493833604,-42.45332614584628" fill="none" id="id82" stroke="none" /><text fill="#e1ed5e" style="font-size:6.75px; font-family:Arial;" text-anchor="middle"><textPath startOffset="22.145653131862435" xlink:href="#id82">October</textPath></text><path d="M 79.01933749520258 99.09900007780938 l -46.97088477793927 -2.0171318956429976 a68.01417698850919,68.01417698850919 0 0,0 0.06010642949172571,-1.1660486745777079 l 46.92933675899098 2.8231523635974174" fill="#48ff2c" stroke="none" /><line stroke="#e1ed5e" stroke-width="0.3" x1="26.387840678322718" x2="22.05771365940052" y1="57.49999999999999" y2="54.99999999999999" /><path d="M 25.521815274538284 56.99999999999999 a86.0,86.0 0 0,1 29.574782752854787,-30.34633250058573" fill="none" id="id83" stroke="none" /><text fill="#e1ed5e" style="font-size:6.75px; font-family:Arial;" text-anchor="middle"><textPath startOffset="21.40746469413373" xlink:href="#id83">November</textPath></text><line stroke="#e1ed5e" stroke-width="0.3" x1="56.869717070023135" x2="54.33264160355391" y1="26.7553504044142" y2="22.446841604673864" /><path d="M 56.362301976729285 25.89364864446614 a86.0,86.0 0 0,1 42.16139366436587,-11.88097634709845" fill="none" id="id84" stroke="none" /><text fill="#e1ed5e" style="font-size:6.75px; font-family:Arial;" text-anchor="middle"><textPath startOffset="22.145653131862474" xlink:href="#id84">December</textPath></text></svg>