<?xml version="1.0" encoding="utf-8" ?>
<svg baseProfile="full" height="200mm" version="1.1" viewBox="0,0,200,200" width="200mm" xmlns="http://www.w3.org/2000/svg" xmlns:ev="http://www.w3.org/2001/xml-events" xmlns:xlink="http://www.w3.org/1999/xlink"><defs /><rect fill="#1a1a1a" height="200" width="200" x="0" y="0" /><text alignment-baseline="middle" fill="#e1ed5e" style="dominant-baseline: central; font-size:9.0px; font-family:Arial;" text-anchor="middle" x="100.0" y="100.0">2025</text><line stroke="#e1ed5e" stroke-width="0.3" x1="100.0" x2="100.0" y1="15.0" y2="10.0" /><path d="M 100.0 14.0 a86.0,86.0 0 0,1 42.46469731375804,11.215312516191453" fill="none" id="id85" stroke="none" /><text fill="#e1ed5e" style="font-size:6.75px; font-family:Arial;" text-anchor="middle"><textPath startOffset="22.20632615414155" xlink:href="#id85">January</textPath></text><path d="M 100.36148047927253 79.00311137660856 l 1.0073595513342462 -58.513301591392995 a79.52197225308609,79.52197225308609 0 0,0 1.368434413763718,0.03534262363274103 l -2.0144206002928318 58.487292175617895" fill="#47fffd" stroke="none" /><path d="M 101.08401301168833 79.027996857942 l 2.299476454942538 -44.48712969139953 a65.54651838411434,65.54651838411434 0 0,0 1.1262700666390728,0.06793968612980776 l -3.0649085704212227 44.440956735889415" fill="#33ff56" stroke="none" /><path d="M 101.80526077348638 79.07773832637324 l 5.08713987895809 -58.957948503114906 a80.17701144738584,80.17701144738584 0 0,0 1.3739853240434292,0.13047646231498733 l -6.101250330091763 58.86164649628474" fill="#48faff" stroke="none" /><path d="M 102.52436894288641 79.15227682838746 l 5.403561214316462 -44.625786042243085 a65.95174361117623,65.95174361117623 0 0,0 1.125844224468259,0.14616689228157503 l -6.170920167292567 44.52616082679737" fill="#34ff5b" stroke="none" /><path d="M 103.59715602781102 79.31037775812273 l 7.560330867556796 -43.484460630566694 a65.13679779003272,65.13679779003272 0 0,0 1.1029982423747342,0.20156587860664543 l -8.307724231034431 43.34787927060931" fill="#33ff51" stroke="none" /><path d="M 104.66035177308747 79.52364482259891 l 10.007967785084404 -43.9723679561667 a66.09687974638382,66.09687974638382 0 0,0 1.1072055552602074,0.26203978255332755 l -10.763397027307136 43.79358226147251" fill="#34ff5d" stroke="none" /><path d="M 105.71112130821622 79.79150937346287 l 11.71414139666297 -41.449849134150455 a64.07332239222842,64.07332239222842 0 0,0 1.0587652215744687,0.30908260143159016 l -12.425896835960867 41.24206820380016" fill="#31ff43" stroke="none" /><path d="M 106.40334571778207 80.00007090966166 l 17.657584328688674 -55.1509242269624 a78.90867575254074,78.90867575254074 0 0,0 1.2900335171404986,0.4253037681935999 l -18.60430066807159 54.83880673450956" fill="#46fff7" stroke="none" /><path d="M 107.08798089147638 80.2323363322302 l 15.615724835566393 -43.550681245363634 a67.26567517150693,67.26567517150693 0 0,0 1.0865574231912347,0.400188268796634 l -16.363064584530203 43.275429708760676" fill="#36ff6c" stroke="none" /><path d="M 108.09893153111575 80.62456947434976 l 2.90865083642644 -6.958493473865807 a28.541941468486563,28.541941468486563 0 0,0 0.4516643206750584,0.1933790907140316 l -3.027998914891813 6.9073948551889846" fill="#ff0000" stroke="none" /><path d="M 109.08828744355905 81.06846463323043 l 22.351122756092074 -46.55894452852597 a72.6459872988043,72.6459872988043 0 0,0 1.1226528673741534,0.5508808863926248 l -23.14924689047666 46.16730848199851" fill="#3dffaf" stroke="none" /><line stroke="#e1ed5e" stroke-width="0.3" x1="143.23703022742887" x2="145.7803849466894" y1="26.81831364943548" y2="22.513508569990506" /><path d="M 143.74570117128098 25.957352633546492 a86.0,86.0 0 0,1 28.547481713284135,27.462654790039103" fill="none" id="id86" stroke="none" /><text fill="#e1ed5e" style="font-size:6.75px; font-family:Arial;" text-anchor="middle"><textPath startOffset="19.985693538727396" xlink:href="#id86">February</textPath></text><path d="M 112.77801427241765 83.33499621200491 l 5.635945602524329 -7.350363899478698 a30.262382646456203,30.262382646456203 0 0,0 0.4106568503594391,0.3205241854365685 l -5.761635008043198 7.252261324818905" fill="#ff1c02" stroke="none" /><path d="M 115.68641384162765 86.03803664274999 l 10.148574568051542 -9.032913939286491 a34.5862835241231,34.5862835241231 0 0,0 0.3919912803497481,0.4481137959841992 l -10.302557711979137 8.856884587099344" fill="#ff6008" stroke="none" /><line stroke="#e1ed5e" stroke-width="0.3" x1="172.23445277983987" x2="176.4835382374775" y1="55.19839476539836" y2="52.563006222186495" /><path d="M 173.08426987136738 54.67131705675599 a86.0,86.0 0 0,1 12.851231095245387,41.99856678651699" fill="none" id="id87" stroke="none" /><text fill="#e1ed5e" style="font-size:6.75px; font-family:Arial;" text-anchor="middle"><textPath startOffset="22.20632615414155" xlink:href="#id87">March</textPath></text><path d="M 118.21658344932153 89.55222093294921 l 17.448746500024946 -10.007400615839746 a41.11484082731063,41.11484082731063 0 0,0 0.346818089620761,0.6169506824329409 l -17.61842223093814 9.705566423472012" fill="#ffc111" stroke="none" /><path d="M 118.89224826269711 90.83032412892265 l 19.777729119282476 -9.599459152136795 a42.984271312219036,42.984271312219036 0 0,0 0.31735043145916303,0.6684209431033271 l -19.940037744583396 9.257595793392927" fill="#ffdb14" stroke="none" /><path d="M 119.47837535516314 92.15188598940014 l 21.987108931910424 -8.858918391023384 a44.70471249018868,44.70471249018868 0 0,0 0.2814405400898597,0.7162354763415162 l -22.13634302188198 8.479133909786084" fill="#fff316" stroke="none" /><path d="M 119.7369772167798 92.82701384747503 l 30.593813554320594 -11.118673268341372 a53.55159478496652,53.55159478496652 0 0,0 0.3074037985261516,0.8690719338741295 l -30.780670433656553 10.590403708040627" fill="#98ff23" stroke="none" /><path d="M 120.08093135843002 93.85539295169968 l 49.2370820497516 -15.066159830960062 a72.49057603898024,72.49057603898024 0 0,0 0.354838272942043,1.1963382568060328 l -49.48912621980534 14.2163921874075" fill="#3dffad" stroke="none" /><path d="M 120.28053869075195 94.5502522615342 l 18.581621585313677 -4.993217968996454 a40.240813039622424,40.240813039622424 0 0,0 0.17400063964376528,0.6704954438754436 l -18.664818556827747 4.67262609957216" fill="#ffb410" stroke="none" /><line stroke="#e1ed5e" stroke-width="0.3" x1="184.98032266829074" x2="189.97916517819016" y1="98.17113171792111" y2="98.06355123074" /><path d="M 185.9800911702706 98.14961562048488 a86.0,86.0 0 0,1 -9.607161424134198,41.387399972396054" fill="none" id="id88" stroke="none" /><text fill="#e1ed5e" style="font-size:6.75px; font-family:Arial;" text-anchor="middle"><textPath startOffset="21.466115282336823" xlink:href="#id88">April</textPath></text><path d="M 120.99980553446 99.90962569577887 l 25.504549702890237 -0.10976082278902904 a46.50478588393594,46.50478588393594 0 0,0 -0.003445124830986721,0.8005256816766628 l -25.50266028076975 -0.3292743370913185" fill="#f3ff19" stroke="none" /><path d="M 120.92983693683757 101.71520430193887 l 43.369764350213984 3.5541608189328717 a64.51515275073649,64.51515275073649 0 0,0 -0.1002301383209015,1.1060312243284296 l -43.30215961561601 -4.300173431809872" fill="#32ff48" stroke="none" /><path d="M 120.81339534386255 102.79330883721812 l 33.78673403038467 4.534425123272417 a55.08965250099387,55.08965250099387 0 0,0 -0.13422449282757204,0.9387657902145916 l -33.7036754865405 -5.115336385467418" fill="#85ff25" stroke="none" /><path d="M 120.49622156327973 104.57218783832717 l 44.05827890009456 9.828285976647328 a66.14119122129233,66.14119122129233 0 0,0 -0.25744493043369154,1.109066022348523 l -43.88257340373031 -10.585220656344415" fill="#34ff5e" stroke="none" /><path d="M 120.32669344350535 105.2749913415812 l 38.22746944644882 9.920431520307469 a60.49372585396683,60.49372585396683 0 0,0 -0.27023965674351397,1.0056622943625033 l -38.051041713363524 -10.57698474784552" fill="#47ff2c" stroke="none" /><path d="M 119.9155931802556 106.66101706037122 l 42.243161392107396 14.12874907466005 a65.54330740767169,65.54330740767169 0 0,0 -0.36707113911660255,1.0668805524643548 l -41.99369942204756 -14.853802330213705" fill="#33ff56" stroke="none" /><path d="M 119.67450827220406 107.3425965602758 l 41.39787207604222 15.44983330219884 a65.186889022538,65.186889022538 0 0,0 -0.4013827450532096,1.0478836897843842 l -41.12579505139551 -16.16014055881637" fill="#33ff51" stroke="none" /><path d="M 119.41010516605496 108.01547362559984 l 41.37278132269386 17.085040738971085 a65.7616538057716,65.7616538057716 0 0,0 -0.44106973398638066,1.0425585612506694 l -41.07256060751517 -17.794673825887916" fill="#34ff59" stroke="none" /><path d="M 119.12269723197855 108.67885076344098 l 21.70140857724357 9.849200879643274 a44.83186715731746,44.83186715731746 0 0,0 -0.3249784836099253,0.6999747422526501 l -21.528655476793812 -10.221295689174754" fill="#fff517" stroke="none" /><path d="M 118.81262510543309 109.33194174019688 l 40.339725174091875 20.01038999238126 a66.03009143637678,66.03009143637678 0 0,0 -0.5138440655555704,1.0138630897402707 l -39.98930243875003 -20.701807293824224" fill="#34ff5c" stroke="none" /><line stroke="#e1ed5e" stroke-width="0.3" x1="174.80103733775053" x2="179.2010983576182" y1="140.37084112569926" y2="142.7455964860345" /><path d="M 175.68104954172406 140.8457921977663 a86.0,86.0 0 0,1 -30.038265399797805,32.042727171017184" fill="none" id="id89" stroke="none" /><text fill="#e1ed5e" style="font-size:6.75px; font-family:Arial;" text-anchor="middle"><textPath startOffset="22.206326154141568" xlink:href="#id89">May</textPath></text><path d="M 117.94076556474637 110.91462005526583 l 26.922944143073984 16.37910628898802 a52.513807198703375,52.513807198703375 0 0,0 -0.47646367509581294,0.7682111535913517 l -26.637015828310208 -16.840113773944644" fill="#a5ff21" stroke="none" /><path d="M 116.71984013943494 112.70617746262583 l 34.40263781026921 26.14415075469106 a64.2094677933966,64.2094677933966 0 0,0 -0.6763188831407296,0.8742333251623073 l -33.94751210991041 -26.732462073966623" fill="#32ff44" stroke="none" /><path d="M 114.29624159901734 115.38237550388516 l 22.6748321790716 24.397515993996098 a54.30745863956535,54.30745863956535 0 0,0 -0.6902231037242686,0.6305024402202857 l -22.251509525880465 -24.784211200802968" fill="#8fff24" stroke="none" /><path d="M 113.75828350139079 115.86535959552629 l 10.725461402558198 12.368061899750948 a37.37084229518557,37.37084229518557 0 0,0 -0.48961947070477174,0.4172643350021774 l -10.510976455276378 -12.550850624976073" fill="#ff8a0c" stroke="none" /><path d="M 112.63410532772338 116.77436683061366 l 27.065300448038585 35.93473905112532 a65.98706435204534,65.98706435204534 0 0,0 -0.9131825075553217,0.6755505879789708 l -26.442732970064696 -36.39529958784406" fill="#34ff5c" stroke="none" /><path d="M 111.45004920935366 117.60387380957326 l 22.51995132260368 34.62329061057597 a62.3027899817535,62.3027899817535 0 0,0 -0.904037804318499,0.5769996997843623 l -21.920631716238255 -35.00580473918414" fill="#33ff2f" stroke="none" /><line stroke="#e1ed5e" stroke-width="0.3" x1="143.8653032363475" x2="146.44561519142675" y1="172.8068346515853" y2="177.08958963109032" /><path d="M 144.38136562736335 173.6633856474863 a86.0,86.0 0 0,1 -40.68145358897372,12.25698825130547" fill="none" id="id90" stroke="none" /><text fill="#e1ed5e" style="font-size:6.75px; font-family:Arial;" text-anchor="middle"><textPath startOffset="21.466115282336833" xlink:href="#id90">June</textPath></text><path d="M 110.5260780823613 118.17145234162733 l 7.185021219245056 12.403695815051739 a35.33444103525958,35.33444103525958 0 0,0 -0.5289250052182872,0.30033742205762887 l -6.9704474471055695 -12.525536402903997" fill="#ff6b09" stroke="none" /><path d="M 109.89434966115114 118.52300852407294 l 18.390291986476335 34.42808743288942 a60.03198744151435,60.03198744151435 0 0,0 -0.9156567484253434,0.47902833416562024 l -17.794944335524498 -34.73954518599976" fill="#4cff2c" stroke="none" /><path d="M 107.93186726928326 119.44442032107085 l 6.010935753971168 14.735390464209027 a36.914241445041334,36.914241445041334 0 0,0 -0.590415033109106,0.23493832645171664 l -5.7563996448201955 -14.836675635066813" fill="#ff830c" stroke="none" /><path d="M 107.2578585660854 119.70592522655815 l 5.7396424863855176 15.583793020217746 a37.60717016136431,37.60717016136431 0 0,0 -0.6093802088562559,0.21850206218650947 l -5.470542716899526 -15.680282623444215" fill="#ff8d0d" stroke="none" /><path d="M 105.88484417918355 120.15858648285463 l 9.832988484513205 33.68299018878586 a56.08890836994525,56.08890836994525 0 0,0 -0.9291230017590789,0.2625794410559313 l -9.251734314649521 -33.84725842318031" fill="#7aff26" stroke="none" /><path d="M 104.83641907484287 120.43548508189849 l 14.509257224528598 61.306455245695496 a84.0,84.0 0 0,0 -1.4099194024285517,0.32089306568926235 l -13.451817672707184 -61.54712504496244" fill="#4dd2ff" stroke="none" /><path d="M 103.41894727170886 120.7198165907248 l 4.988789178589054 30.233515926232158 a51.642348192169294,51.642348192169294 0 0,0 -0.8783235568230667,0.1371760759394922 l -4.46762975815747 -30.31491030951876" fill="#b0ff20" stroke="none" /><path d="M 102.70371172650421 120.8252237178851 l 2.3560912536609373 18.147691921535557 a39.29999694192719,39.29999694192719 0 0,0 -0.6716043417439183,0.08132193277175102 l -2.043359488865639 -18.18555938303266" fill="#ffa60f" stroke="none" /><path d="M 101.62511606390274 120.93702456842531 l 2.136036744047564 27.51942140168261 a48.60219569627221,48.60219569627221 0 0,0 -0.834655317904084,0.05756271748141764 l -1.6620186653645495 -27.552112463680313" fill="#d7ff1c" stroke="none" /><line stroke="#e1ed5e" stroke-width="0.3" x1="102.19456741930631" x2="102.32365962044197" y1="184.97166512339345" y2="189.96999836594603" /><path d="M 102.22038585953345 185.97133177190398 a86.0,86.0 0 0,1 -42.740103519485714,-10.115201625700543" fill="none" id="id91" stroke="none" /><text fill="#e1ed5e" style="font-size:6.75px; font-family:Arial;" text-anchor="middle"><textPath startOffset="22.20632615414155" xlink:href="#id91">July</textPath></text><path d="M 99.81925306533755 120.99922214144158 l -0.1922365003606065 22.33408263495367 a43.33490993975597,43.33490993975597 0 0,0 -0.7458563470047002,-0.012840593414557209 l 0.5766525372579745 -22.32746456425995" fill="#ffe015" stroke="none" /><path d="M 99.09653310690486 120.98055641714683 l -1.9257739283753652 44.72085126720323 a65.76229600106012,65.76229600106012 0 0,0 -1.1305225478526957,-0.05843510243528855 l 2.6952845446415497 -44.68107635800574" fill="#34ff59" stroke="none" /><path d="M 97.65516085044442 120.86867818915974 l -4.382294771284897 39.00169413723535 a60.247122863171626,60.247122863171626 0 0,0 -1.0295733445545696,-0.12466699380181359 l 5.052995538890856 -38.92048161470819" fill="#4aff2c" stroke="none" /><path d="M 96.93821686468263 120.77559828337769 l -4.590848887608045 31.151008433113578 a52.48747719187368,52.48747719187368 0 0,0 -0.892697355362058,-0.1394209676591854 l 5.12638210657862 -31.067369158107287" fill="#a5ff21" stroke="none" /><path d="M 92.40401165467489 119.57807347666478 l -11.319068717678787 29.174025678767435 a52.29289201944934,52.29289201944934 0 0,0 -0.83638477629295,-0.3328147635015344 l 11.819574570013595 -28.974864070859834" fill="#a8ff21" stroke="none" /><path d="M 90.42595943632237 118.69057910512821 l -13.616664821016686 26.58264807763335 a50.867218478914594,50.867218478914594 0 0,0 -0.775868230569938,-0.4058975884370361 l 14.07222395411312 -26.344321070251596" fill="#baff1f" stroke="none" /><line stroke="#e1ed5e" stroke-width="0.3" x1="58.666819895761336" x2="56.23545636021788" y1="174.27360380694188" y2="178.64263932499728" /><path d="M 58.180547188652646 175.14741091055294 a86.0,86.0 0 0,1 -31.652253787137756,-30.449443065178592" fill="none" id="id92" stroke="none" /><text fill="#e1ed5e" style="font-size:6.75px; font-family:Arial;" text-anchor="middle"><textPath startOffset="22.20632615414155" xlink:href="#id92">August</textPath></text><path d="M 89.1626897886671 117.98757091392108 l -23.271146525092732 38.62502689372312 a66.09366876994119,66.09366876994119 0 0,0 -0.9694392730441079,-0.5955087809951388 l 23.932564998069147 -38.2187296458996" fill="#34ff5d" stroke="none" /><path d="M 88.54995079064634 117.60387380957326 l -9.869001446436835 15.173092526767997 a39.10027420719463,39.10027420719463 0 0,0 -0.5610429478491916,-0.3718286730975642 l 10.128719093025989 -15.000965832579116" fill="#ffa30f" stroke="none" /><path d="M 87.36589467227662 116.77436683061367 l -26.889506584853258 35.70133663194725 a65.69486549576456,65.69486549576456 0 0,0 -0.8974271236294926,-0.6881088501433802 l 27.500062436976236 -35.2331884399765" fill="#34ff58" stroke="none" /><path d="M 86.24171649860922 115.8653595955263 l -10.943824593674137 12.619867333846782 a37.70414164993221,37.70414164993221 0 0,0 -0.48666647244320727,-0.42942657819063695 l 11.159433419023932 -12.429617613883858" fill="#ff8f0d" stroke="none" /><path d="M 85.70375840098266 115.38237550388516 l -30.42401564333543 32.735431177522194 a65.69037012874486,65.69037012874486 0 0,0 -0.8216431551631034,-0.7769148875866655 l 30.98299463288935 -32.2068816531896" fill="#34ff58" stroke="none" /><path d="M 84.9287848128048 114.62390073753433 l -38.39940564937222 37.259709294963656 a74.50514265909624,74.50514265909624 0 0,0 -0.8851688086676509,-0.9280959570297694 l 39.035081009418825 -36.59320622135139" fill="#40ffc5" stroke="none" /><path d="M 84.43433777217949 114.09645910891817 l -21.94069588690015 19.869769616233228 a50.600707434174986,50.600707434174986 0 0,0 -0.5791158206351189,-0.6506427636482252 l 22.27947055718361 -19.489152682844136" fill="#bdff1f" stroke="none" /><path d="M 83.72743513129214 113.27417163493432 l -36.50590795511996 29.779305954234367 a68.11144636649982,68.11144636649982 0 0,0 -0.7332751432143636,-0.9148734873674658 l 37.013101010389185 -29.14650463328864" fill="#37ff77" stroke="none" /><path d="M 83.06392112726016 112.41649034213515 l -22.136317074232885 16.22898483338187 a48.44806882702521,48.44806882702521 0 0,0 -0.48729576936405355,-0.6768112035542615 l 22.412392635972548 -15.84554002437647" fill="#d9ff1c" stroke="none" /><path d="M 82.44556493220864 111.52570212397912 l -33.347181536665225 21.8947337001496 a60.89252912814344,60.89252912814344 0 0,0 -0.5677362409505748,-0.8811392537236589 l 33.71912264099284 -21.317472846504494" fill="#42ff2d" stroke="none" /><path d="M 82.05923443525364 110.91462005526583 l -44.76916045962743 27.236205436530465 a73.40313554398018,73.40313554398018 0 0,0 -0.6474125945933333,-1.0851007476412944 l 45.23135392991899 -26.46154259500306" fill="#3effb8" stroke="none" /><line stroke="#e1ed5e" stroke-width="0.3" x1="26.63291911575756" x2="22.317208475507996" y1="142.92168965132927" y2="145.44649492493687" /><path d="M 25.769776987707644 143.4266507060508 a86.0,86.0 0 0,1 -11.730757126820373,-40.83630448921669" fill="none" id="id93" stroke="none" /><text fill="#e1ed5e" style="font-size:6.75px; font-family:Arial;" text-anchor="middle"><textPath startOffset="21.46611528233685" xlink:href="#id93">September</textPath></text><line stroke="#e1ed5e" stroke-width="0.3" x1="15.007084014347285" x2="10.007500721073583" y1="101.09737516637583" y2="101.16192664675087" /><path d="M 14.007167355692545 101.11028546245083 a86.0,86.0 0 0,1 10.666146001902534,-42.60595125391555" fill="none" id="id94" stroke="none" /><text fill="#e1ed5e" style="font-size:6.75px; font-family:Arial;" text-anchor="middle"><textPath startOffset="22.20632615414155" xlink:href="#id94">October</textPath></text><line stroke="#e1ed5e" stroke-width="0.3" x1="26.266209847984243" x2="21.928928074336255" y1="57.711370442889674" y2="55.22380399835377" /><path d="M 25.398753493254645 57.213857153982495 a86.0,86.0 0 0,1 29.58750427330803,-30.492523968695096" fill="none" id="id95" stroke="none" /><text fill="#e1ed5e" style="font-size:6.75px; font-family:Arial;" text-anchor="middle"><textPath startOffset="21.46611528233685" xlink:href="#id95">November</textPath></text><line stroke="#e1ed5e" stroke-width="0.3" x1="56.762969772571076" x2="54.21961505331055" y1="26.818313649435495" y2="22.513508569990535" /><path d="M 56.25429882871897 25.957352633546506 a86.0,86.0 0 0,1 42.265352541879196,-11.944610805530505" fill="none" id="id96" stroke="none" /><text fill="#e1ed5e" style="font-size:6.75px; font-family:Arial;" text-anchor="middle"><textPath startOffset="22.20632615414155" xlink:href="#id96">December</textPath></text></svg>