<?xml version="1.0" encoding="utf-8" ?>
<svg baseProfile="full" height="200mm" version="1.1" viewBox="0,0,200,200" width="200mm" xmlns="http://www.w3.org/2000/svg" xmlns:ev="http://www.w3.org/2001/xml-events" xmlns:xlink="http://www.w3.org/1999/xlink"><defs /><rect fill="#1a1a1a" height="200" width="200" x="0" y="0" /><text alignment-baseline="middle" fill="#e1ed5e" style="dominant-baseline: central; font-size:9.0px; font-family:Arial;" text-anchor="middle" x="100.0" y="100.0">2025</text><line stroke="#e1ed5e" stroke-width="0.3" x1="100.0" x2="100.0" y1="15.0" y2="10.0" /><path d="M 100.0 14.0 a86.0,86.0 0 0,1 42.46469731375804,11.215312516191453" fill="none" id="id85" stroke="none" /><text fill="#e1ed5e" style="font-size:6.75px; font-family:Arial;" text-anchor="middle"><textPath startOffset="22.20632615414155" xlink:href="#id85">January</textPath></text><path d="M 100.36148047927253 79.00311137660856 l 0.6322283383902454 -36.723498963061914 a57.72894075197205,57.72894075197205 0 0,0 0.9934143602941075,0.025656962068550483 l -1.2642693338792208 36.707175208851005" fill="#58ff2a" stroke="none" /><path d="M 101.08401301168833 79.027996857942 l 1.4431730719684595 -27.92054142663561 a48.95781432930926,48.95781432930926 0 0,0 0.8412303531370782,0.05074531220167445 l -1.9235654739451495 27.89156284505363" fill="#bcff1f" stroke="none" /><path d="M 101.80526077348638 79.07773832637324 l 3.1927368818536848 -37.0025635510692 a58.14004951730226,58.14004951730226 0 0,0 0.9963401395717171,0.09461450162449431 l -3.829202148515646 36.94212350492953" fill="#53ff2b" stroke="none" /><path d="M 102.52436894288641 79.15227682838746 l 3.391325890931804 -28.007563457830894 a49.212137496881176,49.212137496881176 0 0,0 0.8400869748227932,0.10906739998961497 l -3.8729275942624435 27.945037734677143" fill="#b9ff1f" stroke="none" /><path d="M 103.59715602781102 79.31037775812273 l 4.744934830612372 -27.29125688424354 a48.7006698270733,48.7006698270733 0 0,0 0.8246759902887624,0.15070426602899858 l -5.214005942004036 27.205537136863807" fill="#c0ff1e" stroke="none" /><path d="M 104.66035177308747 79.52364482259891 l 6.281094803783311 -27.597472115283903 a49.30322630174847,49.30322630174847 0 0,0 0.8258908175848292,0.19546167306020965 l -6.755209308330664 27.485264530082823" fill="#b8ff1f" stroke="none" /><path d="M 105.71112130821622 79.79150937346287 l 7.351905425497152 -26.01431555386634 a48.03322265512543,48.03322265512543 0 0,0 0.793714196933201,0.23170693916115218 l -7.798609840153779 25.883910285786484" fill="#c8ff1d" stroke="none" /><path d="M 106.40334571778207 80.00007090966166 l 11.08206616527959 -34.61323927342148 a57.34403009423641,57.34403009423641 0 0,0 0.9374852653904344,0.3090741524920428 l -11.676234252912442 34.4173513966702" fill="#5cff2a" stroke="none" /><path d="M 107.08798089147638 80.2323363322302 l 9.800575923932072 -27.33281756553632 a50.036773314396484,50.036773314396484 0 0,0 0.808255136645447,0.29768718797220917 l -10.269613386350096 27.160067109757787" fill="#afff20" stroke="none" /><path d="M 108.09893153111575 80.62456947434976 l 1.825496648972677 -4.367216016222415 a25.733393470625494,25.733393470625494 0 0,0 0.4072202198791191,0.17435044619618245 l -1.9004006266421114 4.335146042063442" fill="#ff0000" stroke="none" /><path d="M 109.08828744355905 81.06846463323043 l 14.027775070503862 -29.22083192390026 a53.41350785943228,53.41350785943228 0 0,0 0.8254389538166619,0.4050393097958184 l -14.528685291330957 28.97503745396961" fill="#88ff25" stroke="none" /><line stroke="#e1ed5e" stroke-width="0.3" x1="143.23703022742887" x2="145.7803849466894" y1="26.81831364943548" y2="22.513508569990506" /><path d="M 143.74570117128098 25.957352633546492 a86.0,86.0 0 0,1 28.547481713284135,27.462654790039103" fill="none" id="id86" stroke="none" /><text fill="#e1ed5e" style="font-size:6.75px; font-family:Arial;" text-anchor="middle"><textPath startOffset="19.985693538727396" xlink:href="#id86">February</textPath></text><path d="M 112.77801427241765 83.33499621200491 l 3.537172520796878 -4.61315758467369 a26.813158551331018,26.813158551331018 0 0,0 0.36385129907037483,0.2839917102381013 l -3.6160563750266834 4.551587485212365" fill="#ff1101" stroke="none" /><path d="M 115.68641384162765 86.03803664274999 l 6.3693409445420555 -5.669141830335707 a29.52687945031956,29.52687945031956 0 0,0 0.33464940725390896,0.3825621224906099 l -6.465982215373813 5.558664151642149" fill="#ff3a05" stroke="none" /><line stroke="#e1ed5e" stroke-width="0.3" x1="172.23445277983987" x2="176.4835382374775" y1="55.19839476539836" y2="52.563006222186495" /><path d="M 173.08426987136738 54.67131705675599 a86.0,86.0 0 0,1 12.851231095245387,41.99856678651699" fill="none" id="id87" stroke="none" /><text fill="#e1ed5e" style="font-size:6.75px; font-family:Arial;" text-anchor="middle"><textPath startOffset="22.20632615414155" xlink:href="#id87">March</textPath></text><path d="M 118.21658344932153 89.55222093294921 l 10.950997577867858 -6.28073884302564 a33.62426347811066,33.62426347811066 0 0,0 0.28363244487224876,0.5045504708690444 l -11.05748766403254 6.091304862221802" fill="#ff760a" stroke="none" /><path d="M 118.89224826269711 90.83032412892265 l 12.412688996351655 -6.024710939765285 a34.79753565053836,34.79753565053836 0 0,0 0.2569082274816832,0.5411142468429516 l -12.514555417675092 5.810154277281793" fill="#ff870c" stroke="none" /><path d="M 119.47837535516314 92.15188598940014 l 13.79931656737196 -5.559940586132499 a35.87730073124388,35.87730073124388 0 0,0 0.22586716997640124,0.5748073110800098 l -13.892977287230062 5.321584270156705" fill="#ff960d" stroke="none" /><path d="M 119.7369772167798 92.82701384747503 l 19.200965417809627 -6.978184022017651 a41.429687350056625,41.429687350056625 0 0,0 0.2378200558601015,0.6723493231096457 l -19.31823855447954 6.646637072481391" fill="#ffe215" stroke="none" /><path d="M 120.08093135843002 93.85539295169968 l 30.901656246042656 -9.455663753059728 a53.31597028961864,53.31597028961864 0 0,0 0.26097939693049915,0.8798927866417583 l -31.059841540084857 8.92234157967144" fill="#89ff24" stroke="none" /><path d="M 120.28053869075195 94.5502522615342 l 11.662000647057157 -3.133790606916563 a33.07571540986123,33.07571540986123 0 0,0 0.14301887072520736,0.5511100499733055 l -11.714215849652666 2.932584131394407" fill="#ff6e0a" stroke="none" /><line stroke="#e1ed5e" stroke-width="0.3" x1="184.98032266829074" x2="189.97916517819016" y1="98.17113171792111" y2="98.06355123074" /><path d="M 185.9800911702706 98.14961562048488 a86.0,86.0 0 0,1 -9.607161424134198,41.387399972396054" fill="none" id="id88" stroke="none" /><text fill="#e1ed5e" style="font-size:6.75px; font-family:Arial;" text-anchor="middle"><textPath startOffset="21.466115282336823" xlink:href="#id88">April</textPath></text><path d="M 120.99980553446 99.90962569577887 l 16.006895510835818 -0.06888692574596819 a37.00704374028367,37.00704374028367 0 0,0 -0.002741521821630469,0.6370331215149623 l -16.005709691724686 -0.20665567397267878" fill="#ffa60f" stroke="none" /><path d="M 120.92983693683757 101.71520430193887 l 27.219272418864822 2.2306247912668726 a48.31051954781874,48.31051954781874 0 0,0 -0.07505477163389668,0.8282231507668021 l -27.176843050953853 -2.6988293305822455" fill="#c4ff1e" stroke="none" /><path d="M 120.81339534386255 102.79330883721812 l 21.204872368928005 2.8458478975500285 a42.39498685296432,42.39498685296432 0 0,0 -0.10329427307002997,0.7224399052697286 l -21.152744044841373 -3.2104332748001667" fill="#ffef16" stroke="none" /><path d="M 120.49622156327973 104.57218783832717 l 27.651390632517497 6.168324809160572 a49.33103660057962,49.33103660057962 0 0,0 -0.19201385779955063,0.8271906739309137 l -27.541116208787393 -6.64338414044005" fill="#b8ff1f" stroke="none" /><path d="M 120.32669344350535 105.2749913415812 l 23.99191972417504 6.226156219882945 a45.78663416693857,45.78663416693857 0 0,0 -0.20453962995408645,0.7611680536691658 l -23.881192017879176 -6.63821520672766" fill="#e4ff1b" stroke="none" /><path d="M 119.9155931802556 106.66101706037122 l 26.512205795745146 8.867335936978842 a48.955799090263525,48.955799090263525 0 0,0 -0.27417385007219197,0.7968775462441937 l -26.355641114729725 -9.322386186312336" fill="#bdff1f" stroke="none" /><path d="M 119.67450827220406 107.3425965602758 l 25.981694262849988 9.696460835774069 a48.73210755618679,48.73210755618679 0 0,0 -0.30006382259425934,0.7833719547391017 l -25.810936160662223 -10.142256357346314" fill="#bfff1e" stroke="none" /><path d="M 119.41010516605496 108.01547362559984 l 25.965947069827013 10.722732418055276 a49.09283534537359,49.09283534537359 0 0,0 -0.32927036613730504,0.7782978806548303 l -25.777525722497398 -11.16810482437627" fill="#bbff1f" stroke="none" /><path d="M 119.12269723197855 108.67885076344098 l 13.620008335004195 6.181451199188047 a35.95710419745504,35.95710419745504 0 0,0 -0.260646855418462,0.561410138338554 l -13.511586862745903 -6.414981404805432" fill="#ff970e" stroke="none" /><path d="M 118.81262510543309 109.33194174019688 l 25.317591305066166 12.558709150737284 a49.26130932959714,49.26130932959714 0 0,0 -0.38334993803394474,0.7563857961590176 l -25.097662697245955 -12.992649158598997" fill="#b9ff1f" stroke="none" /><line stroke="#e1ed5e" stroke-width="0.3" x1="174.80103733775053" x2="179.2010983576182" y1="140.37084112569926" y2="142.7455964860345" /><path d="M 175.68104954172406 140.8457921977663 a86.0,86.0 0 0,1 -30.038265399797805,32.042727171017184" fill="none" id="id89" stroke="none" /><text fill="#e1ed5e" style="font-size:6.75px; font-family:Arial;" text-anchor="middle"><textPath startOffset="22.206326154141568" xlink:href="#id89">May</textPath></text><path d="M 117.94076556474637 110.91462005526583 l 16.897093215232015 10.279681311095418 a40.77836209047464,40.77836209047464 0 0,0 -0.36998666260280316,0.5965363064337649 l -16.71764191296125 -10.569013948894456" fill="#ffd914" stroke="none" /><path d="M 116.71984013943494 112.70617746262583 l 21.59141937972362 16.40831515258845 a48.11866879066464,48.11866879066464 0 0,0 -0.5068343571922242,0.6551517286298505 l -21.30577820531333 -16.777544875331554" fill="#c7ff1e" stroke="none" /><path d="M 114.29624159901734 115.38237550388516 l 14.230938151988067 15.31211073276018 a41.90407462142295,41.90407462142295 0 0,0 -0.5325817331253304,0.48650078581897666 l -13.965256869395873 -15.55480428516574" fill="#ffe815" stroke="none" /><path d="M 113.75828350139079 115.86535959552629 l 6.731400553086272 7.762312089690729 a31.274494750782104,31.274494750782104 0 0,0 -0.4097472956452415,0.34919553462661346 l -6.596787780863983 -7.877032014540289" fill="#ff5407" stroke="none" /><path d="M 112.63410532772338 116.77436683061366 l 16.98643737246757 22.55298054273551 a49.23430512638428,49.23430512638428 0 0,0 -0.6813442400345523,0.5040421801372956 l -16.595708162014454 -22.842032671612575" fill="#b9ff1f" stroke="none" /><path d="M 111.45004920935366 117.60387380957326 l 14.133733468314324 21.729903154572753 a46.92201984530641,46.92201984530641 0 0,0 -0.6808568253133302,0.43455503954071395 l -13.757594840954063 -21.969972622937277" fill="#d5ff1c" stroke="none" /><line stroke="#e1ed5e" stroke-width="0.3" x1="143.8653032363475" x2="146.44561519142675" y1="172.8068346515853" y2="177.08958963109032" /><path d="M 144.38136562736335 173.6633856474863 a86.0,86.0 0 0,1 -40.68145358897372,12.25698825130547" fill="none" id="id90" stroke="none" /><text fill="#e1ed5e" style="font-size:6.75px; font-family:Arial;" text-anchor="middle"><textPath startOffset="21.466115282336833" xlink:href="#id90">June</textPath></text><path d="M 110.5260780823613 118.17145234162733 l 4.509386961909802 7.7846762704155905 a29.996430147976124,29.996430147976124 0 0,0 -0.4490197526180197,0.2549651342322049 l -4.3747184423705825 -7.861144570442424" fill="#ff4106" stroke="none" /><path d="M 109.89434966115114 118.52300852407294 l 11.541920389518932 21.607391802480244 a45.49684279216167,45.49684279216167 0 0,0 -0.6939548882214867,0.3630443991839717 l -11.16827459877095 -21.80286562060893" fill="#e7ff1a" stroke="none" /><path d="M 107.93186726928326 119.44442032107085 l 3.772519870259074 9.24806978439738 a30.9879277584784,30.9879277584784 0 0,0 -0.49562818243857654,0.19722068239225762 l -3.612770611778631 -9.311637311195707" fill="#ff5007" stroke="none" /><path d="M 107.2578585660854 119.70592522655815 l 3.602253661381658 9.78053521599128 a31.4228163445483,31.4228163445483 0 0,0 -0.5091699881892403,0.18257024236419378 l -3.4333641125626833 -9.841092999395434" fill="#ff5608" stroke="none" /><path d="M 105.88484417918355 120.15858648285463 l 6.171276147369827 21.139761757225003 a43.02212924399747,43.02212924399747 0 0,0 -0.7126694212267657,0.20140749710112282 l -5.806475558038455 -21.242858047664644" fill="#fff717" stroke="none" /><path d="M 104.83641907484287 120.43548508189849 l 9.106146434200719 38.47650849316402 a60.53939312515595,60.53939312515595 0 0,0 -1.0161388687905601,0.2312698982726041 l -8.442487416017297 -38.627555125014304" fill="#3aff2e" stroke="none" /><path d="M 103.41894727170886 120.7198165907248 l 3.1310110563612135 18.97483923433265 a40.2314262134618,40.2314262134618 0 0,0 -0.684248695206131,0.10686557390604375 l -2.8039264975465654 -19.025923115585798" fill="#ffd213" stroke="none" /><path d="M 102.70371172650421 120.8252237178851 l 1.4787050526546242 11.389662304758906 a32.48525036946049,32.48525036946049 0 0,0 -0.5551459768052088,0.06722044662045257 l -1.282431652798035 -11.41342828010471" fill="#ff6609" stroke="none" /><path d="M 101.62511606390274 120.93702456842531 l 1.3405967706773763 17.271447958380293 a38.32339788495864,38.32339788495864 0 0,0 -0.6581354481334316,0.04538887376952463 l -1.0430985617650144 -17.291965176666103" fill="#ffb811" stroke="none" /><line stroke="#e1ed5e" stroke-width="0.3" x1="102.19456741930631" x2="102.32365962044197" y1="184.97166512339345" y2="189.96999836594603" /><path d="M 102.22038585953345 185.97133177190398 a86.0,86.0 0 0,1 -42.740103519485714,-10.115201625700543" fill="none" id="id91" stroke="none" /><text fill="#e1ed5e" style="font-size:6.75px; font-family:Arial;" text-anchor="middle"><textPath startOffset="22.20632615414155" xlink:href="#id91">July</textPath></text><path d="M 99.81925306533755 120.99922214144158 l -0.1206494374724159 14.017080530050027 a35.017599754332764,35.017599754332764 0 0,0 -0.6027034340200224,-0.010376086195268034 l 0.36191256138510614 -14.0129269665756" fill="#ff8a0c" stroke="none" /><path d="M 99.09653310690486 120.98055641714683 l -1.208633848003325 28.06722728802503 a49.09323839318273,49.09323839318273 0 0,0 -0.8439640390552363,-0.0436233007183847 l 1.6915859554720503 -28.042264180544443" fill="#bbff1f" stroke="none" /><path d="M 97.65516085044442 120.86867818915974 l -2.750369456383316 24.47783042919426 a45.631863808226015,45.631863808226015 0 0,0 -0.7798106931345767,-0.09442421500301726 l 3.1713075725692823 -24.426860685465893" fill="#e6ff1a" stroke="none" /><path d="M 96.93821686468263 120.77559828337769 l -2.8812599832590378 19.550666169554383 a40.761837130299604,40.761837130299604 0 0,0 -0.6932698264939875,-0.10827448908427166 l 3.2173656733615426 -19.498173373123006" fill="#ffd914" stroke="none" /><path d="M 92.40401165467489 119.57807347666478 l -7.103954092681848 18.30989318025683 a40.63971364412798,40.63971364412798 0 0,0 -0.6500011089884153,-0.25864885576054936 l 7.418076277712121 -18.184897480090214" fill="#ffd814" stroke="none" /><path d="M 90.42595943632237 118.69057910512821 l -8.545947038280318 16.683520200781206 a39.74494750782105,39.74494750782105 0 0,0 -0.60622229835057,-0.3171468546617764 l 8.831860239157383 -16.53394392717471" fill="#ffcb13" stroke="none" /><line stroke="#e1ed5e" stroke-width="0.3" x1="58.666819895761336" x2="56.23545636021788" y1="174.27360380694188" y2="178.64263932499728" /><path d="M 58.180547188652646 175.14741091055294 a86.0,86.0 0 0,1 -31.652253787137756,-30.449443065178592" fill="none" id="id92" stroke="none" /><text fill="#e1ed5e" style="font-size:6.75px; font-family:Arial;" text-anchor="middle"><textPath startOffset="22.20632615414155" xlink:href="#id92">August</textPath></text><path d="M 89.1626897886671 117.98757091392108 l -14.605190649662669 24.241430520962524 a49.30121106270273,49.30121106270273 0 0,0 -0.7231332607542765,-0.4442075110662718 l 15.020303110349253 -23.986434543067872" fill="#b8ff1f" stroke="none" /><path d="M 88.54995079064634 117.60387380957326 l -6.1938782213237875 9.522775719686436 a32.35990250081569,32.35990250081569 0 0,0 -0.4643265414192263,-0.30773031270023277 l 6.356879461482976 -9.414747385894884" fill="#ff6409" stroke="none" /><path d="M 87.36589467227662 116.77436683061367 l -16.876107488888614 22.406494987049104 a49.050918373222274,49.050918373222274 0 0,0 -0.670061872489927,-0.5137748709212419 l 17.259298089872026 -22.112680774300493" fill="#bbff1f" stroke="none" /><path d="M 86.24171649860922 115.8653595955263 l -6.868447347651297 7.92034755079812 a31.483676563729535,31.483676563729535 0 0,0 -0.40637577577212075,-0.35857937361763104 l 7.003765476330005 -7.8009450354081995" fill="#ff5708" stroke="none" /><path d="M 85.70375840098266 115.38237550388516 l -19.09439865028149 20.545064800786292 a49.04809703855824,49.04809703855824 0 0,0 -0.6134846420643401,-0.580088020852493 l 19.445219126736646 -20.21334214318787" fill="#bbff1f" stroke="none" /><path d="M 84.9287848128048 114.62390073753433 l -24.099828503854955 23.384544341945954 a54.58033126691362,54.58033126691362 0 0,0 -0.6484492892695806,-0.6798964873330599 l 24.498784344503495 -22.966240738030393" fill="#7bff26" stroke="none" /><path d="M 84.43433777217949 114.09645910891817 l -13.770187303359318 12.470454478770227 a39.57768266702493,39.57768266702493 0 0,0 -0.45295932287837115,-0.5089046010426674 l 13.982805475886028 -12.231575707986696" fill="#ffc912" stroke="none" /><path d="M 83.72743513129214 113.27417163493432 l -22.911451524257878 18.689772779663016 a50.56758727904344,50.56758727904344 0 0,0 -0.5444012244949616,-0.6792242330723915 l 23.2297706608077 -18.292620713012365" fill="#a9ff21" stroke="none" /><path d="M 83.06392112726016 112.41649034213515 l -13.892961002241208 10.185463672210782 a38.2266664107633,38.2266664107633 0 0,0 -0.3844878293366579,-0.5340199666927481 l 14.066228623953473 -9.944810100066896" fill="#ffb711" stroke="none" /><path d="M 82.44556493220864 111.52570212397912 l -20.9290050856214 13.741341002235163 a46.036926856419015,46.036926856419015 0 0,0 -0.4292288754073103,-0.6661727465553295 l 21.162438824405758 -13.379046655758385" fill="#e1ff1b" stroke="none" /><path d="M 82.05923443525364 110.91462005526583 l -28.097546592006285 17.093698952261708 a53.888701226416906,53.888701226416906 0 0,0 -0.4752960976626932,-0.7966235986631343 l 28.387623565367207 -16.607513259712462" fill="#82ff25" stroke="none" /><line stroke="#e1ed5e" stroke-width="0.3" x1="26.63291911575756" x2="22.317208475507996" y1="142.92168965132927" y2="145.44649492493687" /><path d="M 25.769776987707644 143.4266507060508 a86.0,86.0 0 0,1 -11.730757126820373,-40.83630448921669" fill="none" id="id93" stroke="none" /><text fill="#e1ed5e" style="font-size:6.75px; font-family:Arial;" text-anchor="middle"><textPath startOffset="21.46611528233685" xlink:href="#id93">September</textPath></text><path d="M 81.69416730710424 110.29060199501025 l -15.20034442595324 8.544855473046143 a38.43746041494731,38.43746041494731 0 0,0 -0.3192571360543005,-0.5795444364423326 l 15.345177971459059 -8.281940518205989" fill="#ffba11" stroke="none" /><path d="M 81.35079622478065 109.6543875284942 l -18.335299552605157 9.491884450696576 a41.64652707137785,41.64652707137785 0 0,0 -0.32409194537080105,-0.6394641548274238 l 18.495970167762223 -9.174866084166467" fill="#ffe515" stroke="none" /><path d="M 80.20201598880116 107.00284435728193 l -27.92760932873524 9.878414958284692 a50.62320787670576,50.62320787670576 0 0,0 -0.28351206730321793,-0.8240187766401403 l 28.093512226981684 -9.396223478555253" fill="#a8ff21" stroke="none" /><path d="M 79.50377843672027 104.57218783832718 l -25.15264776991932 5.610918572493709 a46.77087691687619,46.77087691687619 0 0,0 -0.1685220648388715,-0.787278983043013 l 25.24550387348263 -5.177125770034532" fill="#d7ff1c" stroke="none" /><path d="M 79.29508885075956 103.50808413554451 l -32.655447452161724 5.532892960530212 a54.12085676448574,54.12085676448574 0 0,0 -0.14771964581924724,-0.9198503755258808 l 32.74584885234226 -4.969963355311118" fill="#80ff26" stroke="none" /><path d="M 79.04373962182676 101.35467743843564 l -27.659464329243903 1.7879932588100607 a48.71719478724833,48.71719478724833 0 0,0 -0.046892965770152895,-0.8373054047387479 l 27.686143645901588 -1.3116161377358753" fill="#bfff1e" stroke="none" /><line stroke="#e1ed5e" stroke-width="0.3" x1="15.007084014347285" x2="10.007500721073583" y1="101.09737516637583" y2="101.16192664675087" /><path d="M 14.007167355692545 101.11028546245083 a86.0,86.0 0 0,1 10.666146001902534,-42.60595125391555" fill="none" id="id94" stroke="none" /><text fill="#e1ed5e" style="font-size:6.75px; font-family:Arial;" text-anchor="middle"><textPath startOffset="22.20632615414155" xlink:href="#id94">October</textPath></text><path d="M 79.00019446554 99.90962569577889 l -29.730143282419565 -0.12794599498237552 a50.73041859393892,50.73041859393892 0 0,0 0.01127421440443922,-0.8732003302439891 l 29.72353606089741 0.6396825832868366" fill="#a7ff21" stroke="none" /><path d="M 79.16333360222342 97.38593545837743 l -26.578617075074934 -3.3344211178008396 a47.78696044373645,47.78696044373645 0 0,0 0.10941848814285139,-0.8152948293082112 l 26.517282587874252 3.79143428917371" fill="#cbff1d" stroke="none" /><path d="M 79.26566170972629 96.67025291283419 l -24.195301000875997 -3.88554637736179 a45.505306796153775,45.505306796153775 0 0,0 0.13085622706527955,-0.7723208594855974 l 24.124832912290493 4.301453025163215" fill="#e7ff1a" stroke="none" /><path d="M 79.3925641242962 95.95851677861259 l -27.496093163137022 -5.392470943148241 a49.01988369191793,49.01988369191793 0 0,0 0.16951706989867407,-0.8266254355879412 l 27.399196797323352 5.864972034899584" fill="#bcff1f" stroke="none" /><path d="M 79.81627453868168 94.20196356495316 l -26.092839105195818 -7.495505827984 a48.148091280732395,48.148091280732395 0 0,0 0.23568284995173958,-0.7946054058165254 l 25.95995035813237 7.943540620547065" fill="#c6ff1e" stroke="none" /><path d="M 80.02781315780177 93.51064311812611 l -26.48174822933928 -8.604441590393218 a48.84455789493887,48.84455789493887 0 0,0 0.26669758060738247,-0.7973918201072803 l 26.329713354960127 9.05900651342282" fill="#beff1f" stroke="none" /><path d="M 80.65960295795068 91.81776055985345 l -25.278039617037727 -10.694246466317471 a48.44715275511966,48.44715275511966 0 0,0 0.3315383777419743,-0.7652362862484231 l 25.090210529453074 11.127781897152495" fill="#c3ff1e" stroke="none" /><path d="M 80.95270993114464 91.15688171328213 l -7.409371343599416 -3.4399616420397634 a29.168972995796786,29.168972995796786 0 0,0 0.21535286938330997,-0.453588064750188 l 7.349060280374354 3.566992122430484" fill="#ff3505" stroke="none" /><line stroke="#e1ed5e" stroke-width="0.3" x1="26.266209847984243" x2="21.928928074336255" y1="57.711370442889674" y2="55.22380399835377" /><path d="M 25.398753493254645 57.213857153982495 a86.0,86.0 0 0,1 29.58750427330803,-30.492523968695096" fill="none" id="id95" stroke="none" /><text fill="#e1ed5e" style="font-size:6.75px; font-family:Arial;" text-anchor="middle"><textPath startOffset="21.46611528233685" xlink:href="#id95">November</textPath></text><path d="M 82.95767976084542 87.72973835380427 l -22.7765181953686 -16.398813877726692 a49.06583114216072,49.06583114216072 0 0,0 0.49939059824631615,-0.6811682147815389 l 22.49086498460865 16.78844453617973" fill="#bbff1f" stroke="none" /><path d="M 83.6137871275137 86.86637796730984 l -21.592073987551952 -17.306142722614354 a48.6716503848147,48.6716503848147 0 0,0 0.5295974050505137,-0.6492237982898797 l 21.290978090425046 17.675250690512318" fill="#c0ff1e" stroke="none" /><path d="M 84.5562425177563 85.77008943001954 l -21.510937335688727 -19.82022282564578 a50.249985605435384,50.249985605435384 0 0,0 0.5915923101037062,-0.6310694288376696 l 21.166577703614568 20.1875616713615" fill="#adff20" stroke="none" /><path d="M 85.31137513191541 84.99185889309783 l -20.477752397518923 -20.923197392149408 a50.27658676083911,50.27658676083911 0 0,0 0.6237092050081986,-0.6000077610537252 l 20.114559948898297 21.272588239965447" fill="#adff20" stroke="none" /><path d="M 85.83668400450813 84.49514656593479 l -30.84000012130865 -33.761139124456705 a66.72658004337563,66.72658004337563 0 0,0 0.854700803188856,-0.7673588200910132 l 30.25428833052382 34.286996953316994" fill="#36ff70" stroke="none" /><line stroke="#e1ed5e" stroke-width="0.3" x1="56.762969772571076" x2="54.21961505331055" y1="26.818313649435495" y2="22.513508569990535" /><path d="M 56.25429882871897 25.957352633546506 a86.0,86.0 0 0,1 42.265352541879196,-11.944610805530505" fill="none" id="id96" stroke="none" /><text fill="#e1ed5e" style="font-size:6.75px; font-family:Arial;" text-anchor="middle"><textPath startOffset="22.20632615414155" xlink:href="#id96">December</textPath></text><path d="M 89.3179101791058 81.91981866633112 l -16.189507414097687 -27.401869358664502 a52.82707329712301,52.82707329712301 0 0,0 0.786880054363529,-0.4558117170804734 l 15.715430627268837 27.676485233135022" fill="#8fff24" stroke="none" /><path d="M 90.58718382345135 81.22770947309562 l -12.585710069582127 -25.100097726567018 a49.07872867205344,49.07872867205344 0 0,0 0.75845036346098,-0.37216829943653784 l 12.151788439110723 25.313021186138386" fill="#bbff1f" stroke="none" /><path d="M 91.23893434514133 80.91482961587045 l -26.28319696457602 -57.25551115238866 a84.0,84.0 0 0,0 1.3192715261329024,-0.5919186779338843 l 25.293743319976343 57.69945016083907" fill="#4dd2ff" stroke="none" /><path d="M 92.23578459929587 80.48803036053334 l -10.284236256342155 -25.844943145272865 a48.815941500489416,48.815941500489416 0 0,0 0.7834187667645663,-0.30395431036385767 l 9.837834324577912 26.018140159527274" fill="#beff1f" stroke="none" /><path d="M 92.91201910852362 80.23233633223022 l -9.608354420378422 -26.796731183513042 a49.4672667600714,49.4672667600714 0 0,0 0.8040032550006871,-0.2805009486520003 l 9.14566916131445 26.95815298533725" fill="#b6ff1f" stroke="none" /><path d="M 93.59665428221793 80.00007090966166 l -8.69747953951668 -27.16532602198039 a49.52369345335201,49.52369345335201 0 0,0 0.8141096846422399,-0.25294784190122405 l 8.228584482163711 27.31101399876414" fill="#b6ff1f" stroke="none" /></svg>