<?xml version="1.0" encoding="utf-8" ?>
<svg baseProfile="full" height="200mm" version="1.1" viewBox="0,0,200,200" width="200mm" xmlns="http://www.w3.org/2000/svg" xmlns:ev="http://www.w3.org/2001/xml-events" xmlns:xlink="http://www.w3.org/1999/xlink"><defs /><rect fill="#1a1a1a" height="200" width="200" x="0" y="0" /><text alignment-baseline="middle" fill="#e1ed5e" style="dominant-baseline: central; font-size:9.0px; font-family:Arial;" text-anchor="middle" x="100.0" y="100.0">2024</text><line stroke="#e1ed5e" stroke-width="0.3" x1="100.0" x2="100.0" y1="15.0" y2="10.0" /><path d="M 100.0 14.0 a86.0,86.0 0 0,1 42.35913384403234,11.155469271406648" fill="none" id="id73" stroke="none" /><text fill="#e1ed5e" style="font-size:6.75px; font-family:Arial;" text-anchor="middle"><textPath startOffset="22.145653131862478" xlink:href="#id73">January</textPath></text><line stroke="#e1ed5e" stroke-width="0.3" x1="143.13028292997686" x2="145.6673583964461" y1="26.7553504044142" y2="22.446841604673864" /><path d="M 143.63769802327073 25.89364864446614 a86.0,86.0 0 0,1 29.32050498858742,28.57503671076993" fill="none" id="id74" stroke="none" /><text fill="#e1ed5e" style="font-size:6.75px; font-family:Arial;" text-anchor="middle"><textPath startOffset="20.669276256404974" xlink:href="#id74">February</textPath></text><line stroke="#e1ed5e" stroke-width="0.3" x1="172.87174338648825" x2="177.1583165268699" y1="56.24261187166439" y2="53.66864786411523" /><path d="M 173.72905801456457 55.72781907015455 a86.0,86.0 0 0,1 12.242430191666344,42.057860355516425" fill="none" id="id75" stroke="none" /><text fill="#e1ed5e" style="font-size:6.75px; font-family:Arial;" text-anchor="middle"><textPath startOffset="22.145653131862474" xlink:href="#id75">March</textPath></text><line stroke="#e1ed5e" stroke-width="0.3" x1="184.99686870605535" x2="189.99668451229388" y1="99.2704041080226" y2="99.22748670261217" /><path d="M 185.99683186730306 99.26182062694052 a86.0,86.0 0 0,1 -10.086455211305974,41.156179273409016" fill="none" id="id76" stroke="none" /><text fill="#e1ed5e" style="font-size:6.75px; font-family:Arial;" text-anchor="middle"><textPath startOffset="21.40746469413373" xlink:href="#id76">April</textPath></text><line stroke="#e1ed5e" stroke-width="0.3" x1="174.33088141563837" x2="178.70328620479359" y1="141.23008692659167" y2="143.65538615756765" /><path d="M 175.20536237346943 141.71514677278685 a86.0,86.0 0 0,1 -30.301960400862466,31.631185727798858" fill="none" id="id77" stroke="none" /><text fill="#e1ed5e" style="font-size:6.75px; font-family:Arial;" text-anchor="middle"><textPath startOffset="22.145653131862474" xlink:href="#id77">May</textPath></text><line stroke="#e1ed5e" stroke-width="0.3" x1="143.1302829299769" x2="145.66735839644613" y1="173.24464959558577" y2="177.55315839532614" /><path d="M 143.63769802327073 174.10635135553383 a86.0,86.0 0 0,1 -40.68552437913181,11.842963189579606" fill="none" id="id78" stroke="none" /><text fill="#e1ed5e" style="font-size:6.75px; font-family:Arial;" text-anchor="middle"><textPath startOffset="21.407464694133747" xlink:href="#id78">June</textPath></text><line stroke="#e1ed5e" stroke-width="0.3" x1="101.45913802915013" x2="101.54496967792366" y1="184.9874750549273" y2="189.98673829345242" /><path d="M 101.47630435890484 185.9873277026323 a86.0,86.0 0 0,1 -42.54439059252881,-10.42667462771756" fill="none" id="id79" stroke="none" /><text fill="#e1ed5e" style="font-size:6.75px; font-family:Arial;" text-anchor="middle"><textPath startOffset="22.145653131862474" xlink:href="#id79">July</textPath></text><line stroke="#e1ed5e" stroke-width="0.3" x1="58.13341422392154" x2="55.67067388415222" y1="173.97424548756322" y2="178.32567169271397" /><path d="M 57.64086615596768 174.84453072859336 a86.0,86.0 0 0,1 -31.369924170532247,-30.572349798747897" fill="none" id="id80" stroke="none" /><text fill="#e1ed5e" style="font-size:6.75px; font-family:Arial;" text-anchor="middle"><textPath startOffset="22.145653131862474" xlink:href="#id80">August</textPath></text><path d="M 84.58840730492382 114.26474011684316 l -43.01254213489398 39.8117668600893 a79.60934704830053,79.60934704830053 0 0,0 -0.919686220399734,-1.010896261531921 l 43.68962605613559 -39.067533022999704" fill="#43ffe0" stroke="none" /><path d="M 84.3458050057657 113.99807769240083 l -46.808563386158575 41.85650601582823 a83.79338103756709,83.79338103756709 0 0,0 -0.949614171449659,-1.0804866088405993 l 47.520188621566824 -41.04680712917633" fill="#4dd5ff" stroke="none" /><path d="M 84.1078160697243 113.72728997021213 l -38.931763864524385 33.628330377049735 a72.4445997316637,72.4445997316637 0 0,0 -0.8048437600927782,-0.9481039256384423 l 39.50330218812427 -32.955059668961745" fill="#33ff54" stroke="none" /><path d="M 83.8745106332314 113.45245675266167 l -39.94231791495881 33.3213022024225 a73.01632379248659,73.01632379248659 0 0,0 -0.7946720500130913,-0.9693706891480542 l 40.50843678421053 -32.630729231575955" fill="#34ff60" stroke="none" /><path d="M 83.64595745247003 113.17365903436017 l -22.29755946398192 17.96133554276668 a49.63198792486584,49.63198792486584 0 0,0 -0.5287781815611975,-0.6680939585822367 l 22.602604076184676 -17.575921640269765" fill="#ff0000" stroke="none" /><path d="M 83.4222238831116 112.89097897827486 l -46.62870234487496 36.258760974559536 a80.06719588550983,80.06719588550983 0 0,0 -0.834407023730007,-1.0922655788878668 l 47.24426134595926 -35.452974482430804" fill="#44ffe9" stroke="none" /><path d="M 83.20337586046588 112.60449989151573 l -47.33064827690948 35.5178008459158 a80.17520125223615,80.17520125223615 0 0,0 -0.8166339822530125,-1.1079208360236548 l 47.93338427874632 -34.700073700623264" fill="#44ffeb" stroke="none" /><path d="M 82.98947788004972 112.3143062007846 l -47.5872399332822 34.449491888397986 a79.74787567084078,79.74787567084078 0 0,0 -0.7932441500927869,-1.1157972377920053 l 48.17159918190495 -33.62751742389648" fill="#43ffe3" stroke="none" /><path d="M 82.78059297857968 112.02048342749411 l -48.00410271378516 33.5105918807176 a79.54360465116281,79.54360465116281 0 0,0 -0.7719906189814871,-1.12635738431315 l 48.57228306958197 -32.6815997613344" fill="#43ffdf" stroke="none" /><path d="M 82.576782715395 111.72311816256416 l -48.54306255758855 32.661938896795206 a79.508385509839,79.508385509839 0 0,0 -0.7522082429368775,-1.1389391524826002 l 49.09659523944615 -31.823819865973547" fill="#43ffdf" stroke="none" /><path d="M 82.37810715431573 111.42229804090323 l -49.63545790640665 32.1731041363433 a80.15054785330949,80.15054785330949 0 0,0 -0.7384625245765664,-1.1609857439994986 l 50.180438122609104 -31.316304717665126" fill="#44ffea" stroke="none" /><path d="M 82.18462484594161 111.11811171558189 l -50.13064112139584 31.285227705937764 a80.0918492844365,80.0918492844365 0 0,0 -0.7178977057781155,-1.172631950281437 l 50.66030679162936 -30.42005863953177" fill="#44ffe9" stroke="none" /><path d="M 81.99639281039703 110.81064883170644 l -50.56771221082415 30.36445825421664 a79.9838439177102,79.9838439177102 0 0,0 -0.696721324639347,-1.1831851270679532 l 51.081507245593265 -29.491921958855126" fill="#44ffe7" stroke="none" /><line stroke="#e1ed5e" stroke-width="0.3" x1="26.387840678322732" x2="22.057713659400548" y1="142.50000000000003" y2="145.00000000000006" /><path d="M 25.521815274538298 143.00000000000003 a86.0,86.0 0 0,1 -11.493303480769221,-40.785679425670985" fill="none" id="id81" stroke="none" /><text fill="#e1ed5e" style="font-size:6.75px; font-family:Arial;" text-anchor="middle"><textPath startOffset="21.40746469413373" xlink:href="#id81">September</textPath></text><path d="M 81.81346652052679 110.50000000000001 l -52.10327972697021 30.081842576028656 a81.16368515205725,81.16368515205725 0 0,0 -0.6862839264245298,-1.2125979395364006 l 52.61199701841611 -29.18298786639313" fill="#47fffc" stroke="none" /><path d="M 81.1358732173502 109.22738970284198 l -52.89822582426751 25.875173014549212 a79.8875782647585,79.8875782647585 0 0,0 -0.5920078194927298,-1.2370686519997591 l 53.334612901720156 -24.963291860484347" fill="#44ffe5" stroke="none" /><path d="M 80.9802524753101 108.90220220490708 l -53.99702919800154 25.27333613450363 a80.61896243291591,80.61896243291591 0 0,0 -0.5759093710573339,-1.258465910853806 l 54.42292303391393 -24.342681241435137" fill="#45fff3" stroke="none" /><path d="M 80.68587082218212 108.24405325689762 l -57.942387533453626 24.73215977069285 a84.0,84.0 0 0,0 -0.5546966218540579,-1.3310699622348747 l 58.35840999984417 -23.733857299016694" fill="#4dd2ff" stroke="none" /><path d="M 80.28708602549918 107.23885506374661 l -54.92021359756393 20.16746315724933 a79.50603756708409,79.50603756708409 0 0,0 -0.4594685333152946,-1.2852152624138238 l 55.25832230092317 -19.221712938454587" fill="#43ffdf" stroke="none" /><line stroke="#e1ed5e" stroke-width="0.3" x1="15.003131293944662" x2="10.003315487706104" y1="100.72959589197737" y2="100.7725132973878" /><path d="M 14.003168132696942 100.73817937305945 a86.0,86.0 0 0,1 10.791469493833604,-42.45332614584628" fill="none" id="id82" stroke="none" /><text fill="#e1ed5e" style="font-size:6.75px; font-family:Arial;" text-anchor="middle"><textPath startOffset="22.145653131862435" xlink:href="#id82">October</textPath></text><line stroke="#e1ed5e" stroke-width="0.3" x1="26.387840678322718" x2="22.05771365940052" y1="57.49999999999999" y2="54.99999999999999" /><path d="M 25.521815274538284 56.99999999999999 a86.0,86.0 0 0,1 29.574782752854787,-30.34633250058573" fill="none" id="id83" stroke="none" /><text fill="#e1ed5e" style="font-size:6.75px; font-family:Arial;" text-anchor="middle"><textPath startOffset="21.40746469413373" xlink:href="#id83">November</textPath></text><line stroke="#e1ed5e" stroke-width="0.3" x1="56.869717070023135" x2="54.33264160355391" y1="26.7553504044142" y2="22.446841604673864" /><path d="M 56.362301976729285 25.89364864446614 a86.0,86.0 0 0,1 42.16139366436587,-11.88097634709845" fill="none" id="id84" stroke="none" /><text fill="#e1ed5e" style="font-size:6.75px; font-family:Arial;" text-anchor="middle"><textPath startOffset="22.145653131862474" xlink:href="#id84">December</textPath></text></svg>