<?xml version="1.0" encoding="utf-8" ?>
<svg baseProfile="full" height="200mm" version="1.1" viewBox="0,0,200,200" width="200mm" xmlns="http://www.w3.org/2000/svg" xmlns:ev="http://www.w3.org/2001/xml-events" xmlns:xlink="http://www.w3.org/1999/xlink"><defs /><rect fill="#1a1a1a" height="200" width="200" x="0" y="0" /><text alignment-baseline="middle" fill="#e1ed5e" style="dominant-baseline: central; font-size:9.0px; font-family:Arial;" text-anchor="middle" x="100.0" y="100.0">2024</text><line stroke="#e1ed5e" stroke-width="0.3" x1="100.0" x2="100.0" y1="15.0" y2="10.0" /><path d="M 100.0 14.0 a86.0,86.0 0 0,1 42.35913384403234,11.155469271406648" fill="none" id="id73" stroke="none" /><text fill="#e1ed5e" style="font-size:6.75px; font-family:Arial;" text-anchor="middle"><textPath startOffset="22.145653131862478" xlink:href="#id73">January</textPath></text><line stroke="#e1ed5e" stroke-width="0.3" x1="143.13028292997686" x2="145.6673583964461" y1="26.7553504044142" y2="22.446841604673864" /><path d="M 143.63769802327073 25.89364864446614 a86.0,86.0 0 0,1 29.32050498858742,28.57503671076993" fill="none" id="id74" stroke="none" /><text fill="#e1ed5e" style="font-size:6.75px; font-family:Arial;" text-anchor="middle"><textPath startOffset="20.669276256404974" xlink:href="#id74">February</textPath></text><line stroke="#e1ed5e" stroke-width="0.3" x1="172.87174338648825" x2="177.1583165268699" y1="56.24261187166439" y2="53.66864786411523" /><path d="M 173.72905801456457 55.72781907015455 a86.0,86.0 0 0,1 12.242430191666344,42.057860355516425" fill="none" id="id75" stroke="none" /><text fill="#e1ed5e" style="font-size:6.75px; font-family:Arial;" text-anchor="middle"><textPath startOffset="22.145653131862474" xlink:href="#id75">March</textPath></text><line stroke="#e1ed5e" stroke-width="0.3" x1="184.99686870605535" x2="189.99668451229388" y1="99.2704041080226" y2="99.22748670261217" /><path d="M 185.99683186730306 99.26182062694052 a86.0,86.0 0 0,1 -10.086455211305974,41.156179273409016" fill="none" id="id76" stroke="none" /><text fill="#e1ed5e" style="font-size:6.75px; font-family:Arial;" text-anchor="middle"><textPath startOffset="21.40746469413373" xlink:href="#id76">April</textPath></text><line stroke="#e1ed5e" stroke-width="0.3" x1="174.33088141563837" x2="178.70328620479359" y1="141.23008692659167" y2="143.65538615756765" /><path d="M 175.20536237346943 141.71514677278685 a86.0,86.0 0 0,1 -30.301960400862466,31.631185727798858" fill="none" id="id77" stroke="none" /><text fill="#e1ed5e" style="font-size:6.75px; font-family:Arial;" text-anchor="middle"><textPath startOffset="22.145653131862474" xlink:href="#id77">May</textPath></text><line stroke="#e1ed5e" stroke-width="0.3" x1="143.1302829299769" x2="145.66735839644613" y1="173.24464959558577" y2="177.55315839532614" /><path d="M 143.63769802327073 174.10635135553383 a86.0,86.0 0 0,1 -40.68552437913181,11.842963189579606" fill="none" id="id78" stroke="none" /><text fill="#e1ed5e" style="font-size:6.75px; font-family:Arial;" text-anchor="middle"><textPath startOffset="21.407464694133747" xlink:href="#id78">June</textPath></text><line stroke="#e1ed5e" stroke-width="0.3" x1="101.45913802915013" x2="101.54496967792366" y1="184.9874750549273" y2="189.98673829345242" /><path d="M 101.47630435890484 185.9873277026323 a86.0,86.0 0 0,1 -42.54439059252881,-10.42667462771756" fill="none" id="id79" stroke="none" /><text fill="#e1ed5e" style="font-size:6.75px; font-family:Arial;" text-anchor="middle"><textPath startOffset="22.145653131862474" xlink:href="#id79">July</textPath></text><line stroke="#e1ed5e" stroke-width="0.3" x1="58.13341422392154" x2="55.67067388415222" y1="173.97424548756322" y2="178.32567169271397" /><path d="M 57.64086615596768 174.84453072859336 a86.0,86.0 0 0,1 -31.369924170532247,-30.572349798747897" fill="none" id="id80" stroke="none" /><text fill="#e1ed5e" style="font-size:6.75px; font-family:Arial;" text-anchor="middle"><textPath startOffset="22.145653131862474" xlink:href="#id80">August</textPath></text><path d="M 84.58840730492382 114.26474011684316 l -19.6977783373466 18.2319695582925 a47.840402109539,47.840402109539 0 0,0 -0.5526757878296734,-0.6074875053726396 l 20.007851826018157 -17.891144477362186" fill="#ffe815" stroke="none" /><path d="M 84.3458050057657 113.99807769240083 l -21.43618256690288 19.168366633385723 a49.7564984383267,49.7564984383267 0 0,0 -0.5638807678325393,-0.6415928036285756 l 21.76207439869401 -18.797561551945847" fill="#f9ff18" stroke="none" /><path d="M 84.1078160697243 113.72728997021213 l -17.82896840833777 15.40023827340374 a44.55927531532147,44.55927531532147 0 0,0 -0.4950438655832304,-0.58316042888695 l 18.09070683742811 -15.091911062067236" fill="#ffb510" stroke="none" /><path d="M 83.8745106332314 113.45245675266167 l -18.291755974367646 15.259633402662535 a44.821098803570514,44.821098803570514 0 0,0 -0.4878097474655086,-0.595048575152465 l 18.551012541071785 -14.943382545811573" fill="#ffb911" stroke="none" /><path d="M 83.64595745247003 113.17365903436017 l -10.211263087121957 8.22547072559805 a34.11214179652165,34.11214179652165 0 0,0 -0.3634300591712838,-0.4591820074395766 l 10.350959576934802 -8.048968774243793" fill="#ff0300" stroke="none" /><path d="M 83.4222238831116 112.89097897827486 l -21.353814430845777 16.60485525881759 a48.05007595023126,48.05007595023126 0 0,0 -0.5007459099849548,-0.6554924703299558 l 21.635712318185025 -16.235841875246766" fill="#ffec16" stroke="none" /><path d="M 83.20337586046588 112.60449989151573 l -21.675273584100545 16.26552938672514 a48.09953747162534,48.09953747162534 0 0,0 -0.48992352019678725,-0.6646753476833703 l 21.95129912388116 -15.89104772977289" fill="#ffec16" stroke="none" /><path d="M 82.98947788004972 112.3143062007846 l -21.792780834766905 15.77629271303604 a47.90384188697922,47.90384188697922 0 0,0 -0.47649472821895233,-0.670249508309603 l 22.060390661515818 -15.399865978016933" fill="#ffe915" stroke="none" /><path d="M 82.78059297857968 112.02048342749411 l -21.98368493482417 15.346319423519214 a47.810295096516526,47.810295096516526 0 0,0 -0.46401089650276234,-0.677005765131175 l 22.243885568142254 -14.966678923317987" fill="#ffe815" stroke="none" /><path d="M 82.576782715395 111.72311816256416 l -22.230503909221817 14.957675145991855 a47.7941663395402,47.7941663395402 0 0,0 -0.452168229229727,-0.6846403301401731 l 22.48399657737227 -14.573854937512621" fill="#ffe815" stroke="none" /><path d="M 82.37810715431573 111.42229804090323 l -22.730771049217505 14.733811168718118 a48.088247341741905,48.088247341741905 0 0,0 -0.4430583381593041,-0.6965612976203616 l 22.9803470790027 -14.341436196419084" fill="#ffec16" stroke="none" /><path d="M 82.18462484594161 111.11811171558189 l -22.95754232850255 14.327204345474936 a48.061366080114695,48.061366080114695 0 0,0 -0.4307947032530456,-0.7036707722850218 l 23.200104996211 -13.930996457065357" fill="#ffec16" stroke="none" /><path d="M 81.99639281039703 110.81064883170644 l -23.157700910392954 13.905534021899964 a48.01190455872062,48.01190455872062 0 0,0 -0.41822093193001636,-0.7102305742460819 l 23.39299555245274 -13.505952279360324" fill="#ffeb16" stroke="none" /><line stroke="#e1ed5e" stroke-width="0.3" x1="26.387840678322732" x2="22.057713659400548" y1="142.50000000000003" y2="145.00000000000006" /><path d="M 25.521815274538298 143.00000000000003 a86.0,86.0 0 0,1 -11.493303480769221,-40.785679425670985" fill="none" id="id81" stroke="none" /><text fill="#e1ed5e" style="font-size:6.75px; font-family:Arial;" text-anchor="middle"><textPath startOffset="21.40746469413373" xlink:href="#id81">September</textPath></text><path d="M 81.81346652052679 110.50000000000001 l -23.860920647097068 13.776108958713808 a48.55221791742759,48.55221791742759 0 0,0 -0.41053590268316004,-0.7253776032507159 l 24.093889914801604 -13.36447458536397" fill="#fff316" stroke="none" /><path d="M 81.1358732173502 109.22738970284198 l -24.22496962531355 11.849646572449428 a47.967819289652,47.967819289652 0 0,0 -0.35546607770954725,-0.7427873874378639 l 24.424814960983007 -11.43204668294646" fill="#ffea16" stroke="none" /><path d="M 80.9802524753101 108.90220220490708 l -24.728171347831193 11.574032789353337 a48.30275980952705,48.30275980952705 0 0,0 -0.34505544580018527,-0.7540084216666898 l 24.923211258486436 -11.147835385471959" fill="#fff016" stroke="none" /><path d="M 80.68587082218212 108.24405325689762 l -26.534965136243237 11.326198750102071 a49.85112047925449,49.85112047925449 0 0,0 -0.3291934300652632,-0.7899443934962793 l 26.725484410844988 -10.869021847164511" fill="#f7ff18" stroke="none" /><path d="M 80.28708602549918 107.23885506374661 l -25.150947607138217 9.235776338265502 a47.79309108907512,47.79309108907512 0 0,0 -0.27619816226878513,-0.7725754167258799 l 25.305785939450946 -8.8026659651587" fill="#ffe815" stroke="none" /><path d="M 79.94057633289273 106.21446072829308 l -25.071797448034097 7.767306938335152 a47.247401478042704,47.247401478042704 0 0,0 -0.23336544531278744,-0.7767976694485818 l 25.20143921335051 -7.335771665295847" fill="#ffdf14" stroke="none" /><path d="M 79.83685265289637 105.86919833188381 l -26.444450737607443 7.6975942041629795 a48.54200303800924,48.54200303800924 0 0,0 -0.2260242978465287,-0.8020804958126627 l 26.572693527528546 -7.242505784447321" fill="#fff316" stroke="none" /><path d="M 79.64726062577567 105.17358676015961 l -26.320551195991726 6.690581188306281 a48.15760099674011,48.15760099674011 0 0,0 -0.19678680278912744,-0.8029573090407488 l 26.431525525297147 -6.237768054657432" fill="#ffed16" stroke="none" /><path d="M 79.34024301695615 103.76489593502545 l -31.898310761645753 5.812934809410576 a53.42364014951101,53.42364014951101 0 0,0 -0.15667164899223018,-0.9036404375166409 l 31.993397228130217 -5.264501338973343" fill="#c3ff1e" stroke="none" /><line stroke="#e1ed5e" stroke-width="0.3" x1="15.003131293944662" x2="10.003315487706104" y1="100.72959589197737" y2="100.7725132973878" /><path d="M 14.003168132696942 100.73817937305945 a86.0,86.0 0 0,1 10.791469493833604,-42.45332614584628" fill="none" id="id82" stroke="none" /><text fill="#e1ed5e" style="font-size:6.75px; font-family:Arial;" text-anchor="middle"><textPath startOffset="22.145653131862435" xlink:href="#id82">October</textPath></text><path d="M 79.01933749520258 99.09900007780938 l -24.174080405461066 -1.0381390272766593 a45.1963612158864,45.1963612158864 0 0,0 0.03994155364350293,-0.7748554702120909 l 24.15269726236099 1.4529662908654624" fill="#ffbf11" stroke="none" /><path d="M 79.0935383218832 98.0201363427161 l -56.9544168975633 -5.393642495483205 a78.20923862026592,78.20923862026592 0 0,0 0.1380490172135202,-1.335499013567806 l 56.85343548786811 6.370546031333925" fill="#44ffe8" stroke="none" /><path d="M 79.2786578344484 96.59031103205396 l -50.26404661601649 -8.270929742952514 a71.93999078356744,71.93999078356744 0 0,0 0.21097321247680864,-1.2168374256167385 l 50.11465858604745 9.132560201489845" fill="#3aff97" stroke="none" /><path d="M 79.56144815229197 95.17655741523228 l -38.88595737692487 -9.176980059981844 a60.95415678175829,60.95415678175829 0 0,0 0.24907747440743028,-1.01632109347887 l 38.72269237600114 9.843156978068832" fill="#5eff2a" stroke="none" /><path d="M 79.73907114497095 94.47779374421319 l -32.54090316909374 -8.869167861705355 a54.727918963663356,54.727918963663356 0 0,0 0.25482754485176573,-0.904293058174724 l 32.38385713216739 9.426468843783091" fill="#b1ff20" stroke="none" /><path d="M 80.05021161711548 93.44210830539832 l -39.08171409580799 -12.84693568477038 a62.13908279428581,62.13908279428581 0 0,0 0.3418080929934207,-1.0104948916171446 l 38.8554205812422 13.515932250861686" fill="#4fff2b" stroke="none" /><path d="M 80.68587082218212 91.75594674310238 l -35.866506990208336 -15.309279079781666 a59.997183867829534,59.997183867829534 0 0,0 0.41245526309105635,-0.9437783589607409 l 35.5984178451003 15.922719508518274" fill="#6aff28" stroke="none" /><path d="M 80.9802524753101 91.09779779509293 l -11.713549345136801 -5.482532545303318 a33.93311259408441,33.93311259408441 0 0,0 0.25146172198197664,-0.5254582848387613 l 11.617708365194918 5.6828033322071665" fill="#ff0000" stroke="none" /><line stroke="#e1ed5e" stroke-width="0.3" x1="26.387840678322718" x2="22.05771365940052" y1="57.49999999999999" y2="54.99999999999999" /><path d="M 25.521815274538284 56.99999999999999 a86.0,86.0 0 0,1 29.574782752854787,-30.34633250058573" fill="none" id="id83" stroke="none" /><text fill="#e1ed5e" style="font-size:6.75px; font-family:Arial;" text-anchor="middle"><textPath startOffset="21.40746469413373" xlink:href="#id83">November</textPath></text><path d="M 82.18462484594161 88.88188828441811 l -33.87873734302512 -21.14283776262794 a60.934802273386694,60.934802273386694 0 0,0 0.5614193430559442,-0.8826444565582479 l 33.510800308343285 21.72129589386486" fill="#5eff2a" stroke="none" /><path d="M 82.78059297857968 87.97951657250589 l -30.25511912974086 -21.120422883523467 a57.89775733474425,57.89775733474425 0 0,0 0.5759032064858869,-0.810079982256846 l 29.888100824725 21.636680092489833" fill="#86ff25" stroke="none" /><path d="M 83.42222388311158 87.10902102172516 l -43.881125242446196 -34.122228401139374 a76.58668566844736,76.58668566844736 0 0,0 0.8159529785683087,-1.03092993334025 l 43.28890583323632 34.87047827839431" fill="#42ffd4" stroke="none" /><path d="M 84.10781606972428 86.27271002978789 l -30.688560943476904 -26.50804802460684 a61.55199604034749,61.55199604034749 0 0,0 0.6975568594698679,-0.7936916573301699 l 30.228993020048442 27.03095195974831" fill="#56ff2a" stroke="none" /><path d="M 84.58840730492382 85.73525988315684 l -27.167104547271855 -25.145466387633828 a58.018185386834155,58.018185386834155 0 0,0 0.6828026693125503,-0.7251127730141519 l 26.731446044223034 25.60812062059249" fill="#84ff25" stroke="none" /><path d="M 85.08716467003674 85.21462403516908 l -32.98139063122841 -32.69950009746844 a67.44383096379991,67.44383096379991 0 0,0 0.8221983649581358,-0.8151710707319415 l 32.415200346140296 33.26085117842906" fill="#34ff58" stroke="none" /><path d="M 85.60350026404147 84.71141617570332 l -37.92745827845947 -40.27764635624711 a76.32432455496578,76.32432455496578 0 0,0 0.9615782858007309,-0.8900225058068978 l 37.23045022134478 40.92278660818638" fill="#41ffd0" stroke="none" /><path d="M 86.40962598614128 83.9905735841838 l -14.907752608040601 -17.561295087261097 a44.035628338823365,44.035628338823365 0 0,0 0.5804853397854041,-0.4842615161255197 l 14.604092934093288 17.8146187872985" fill="#ffad10" stroke="none" /><path d="M 87.25179093698888 83.31218511350988 l -32.41958489525217 -42.438277310541096 a74.40446484955027,74.40446484955027 0 0,0 1.0216335738601336,-0.7666528800022447 l 31.686298332481282 42.98854921780734" fill="#3effb8" stroke="none" /><path d="M 87.83215693770416 82.88440491214696 l -20.807715652295908 -29.26865788657553 a56.91121503302555,56.91121503302555 0 0,0 0.8011064062394165,-0.5592344886140014 l 20.302214154882726 29.62153719099466" fill="#93ff23" stroke="none" /><path d="M 88.72937992617638 82.28071324371311 l -19.987552434687142 -31.42375227154553 a58.24183748357257,58.24183748357257 0 0,0 0.8482115765560574,-0.5293467572279446 l 19.445176729341387 31.76223482561501" fill="#81ff25" stroke="none" /><line stroke="#e1ed5e" stroke-width="0.3" x1="56.869717070023135" x2="54.33264160355391" y1="26.7553504044142" y2="22.446841604673864" /><path d="M 56.362301976729285 25.89364864446614 a86.0,86.0 0 0,1 42.16139366436587,-11.88097634709845" fill="none" id="id84" stroke="none" /><text fill="#e1ed5e" style="font-size:6.75px; font-family:Arial;" text-anchor="middle"><textPath startOffset="22.145653131862474" xlink:href="#id84">December</textPath></text><path d="M 89.34428304082924 81.90426304109057 l -25.02577631419794 -42.499239338792854 a70.32012595791163,70.32012595791163 0 0,0 1.0454510945269255,-0.6035914708497061 l 24.292532751810615 42.92257770691873" fill="#38ff80" stroke="none" /><path d="M 90.61103034731259 81.2157712731953 l -28.166908958062205 -56.35268618041411 a84.0,84.0 0 0,0 1.2953590029517876,-0.6336249996111434 l 27.195389705848363 56.827904930122465" fill="#4dd2ff" stroke="none" /><path d="M 91.5904679813234 80.7573450057729 l -14.866489860737731 -34.01743815589518 a58.12409755764537,58.12409755764537 0 0,0 0.9177100970232006,-0.39171587000365465 l 14.2803446885441 34.267628675558235" fill="#82ff25" stroke="none" /></svg>