<?xml version="1.0" encoding="utf-8" ?>
<svg baseProfile="full" height="200mm" version="1.1" viewBox="0,0,200,200" width="200mm" xmlns="http://www.w3.org/2000/svg" xmlns:ev="http://www.w3.org/2001/xml-events" xmlns:xlink="http://www.w3.org/1999/xlink"><defs /><rect fill="#1a1a1a" height="200" width="200" x="0" y="0" /><text alignment-baseline="middle" fill="#e1ed5e" style="dominant-baseline: central; font-size:9.0px; font-family:Arial;" text-anchor="middle" x="100.0" y="100.0">2024</text><line stroke="#e1ed5e" stroke-width="0.3" x1="100.0" x2="100.0" y1="15.0" y2="10.0" /><path d="M 100.0 14.0 a86.0,86.0 0 0,1 42.35913384403234,11.155469271406648" fill="none" id="id73" stroke="none" /><text fill="#e1ed5e" style="font-size:6.75px; font-family:Arial;" text-anchor="middle"><textPath startOffset="22.145653131862478" xlink:href="#id73">January</textPath></text><line stroke="#e1ed5e" stroke-width="0.3" x1="143.13028292997686" x2="145.6673583964461" y1="26.7553504044142" y2="22.446841604673864" /><path d="M 143.63769802327073 25.89364864446614 a86.0,86.0 0 0,1 29.32050498858742,28.57503671076993" fill="none" id="id74" stroke="none" /><text fill="#e1ed5e" style="font-size:6.75px; font-family:Arial;" text-anchor="middle"><textPath startOffset="20.669276256404974" xlink:href="#id74">February</textPath></text><line stroke="#e1ed5e" stroke-width="0.3" x1="172.87174338648825" x2="177.1583165268699" y1="56.24261187166439" y2="53.66864786411523" /><path d="M 173.72905801456457 55.72781907015455 a86.0,86.0 0 0,1 12.242430191666344,42.057860355516425" fill="none" id="id75" stroke="none" /><text fill="#e1ed5e" style="font-size:6.75px; font-family:Arial;" text-anchor="middle"><textPath startOffset="22.145653131862474" xlink:href="#id75">March</textPath></text><line stroke="#e1ed5e" stroke-width="0.3" x1="184.99686870605535" x2="189.99668451229388" y1="99.2704041080226" y2="99.22748670261217" /><path d="M 185.99683186730306 99.26182062694052 a86.0,86.0 0 0,1 -10.086455211305974,41.156179273409016" fill="none" id="id76" stroke="none" /><text fill="#e1ed5e" style="font-size:6.75px; font-family:Arial;" text-anchor="middle"><textPath startOffset="21.40746469413373" xlink:href="#id76">April</textPath></text><line stroke="#e1ed5e" stroke-width="0.3" x1="174.33088141563837" x2="178.70328620479359" y1="141.23008692659167" y2="143.65538615756765" /><path d="M 175.20536237346943 141.71514677278685 a86.0,86.0 0 0,1 -30.301960400862466,31.631185727798858" fill="none" id="id77" stroke="none" /><text fill="#e1ed5e" style="font-size:6.75px; font-family:Arial;" text-anchor="middle"><textPath startOffset="22.145653131862474" xlink:href="#id77">May</textPath></text><line stroke="#e1ed5e" stroke-width="0.3" x1="143.1302829299769" x2="145.66735839644613" y1="173.24464959558577" y2="177.55315839532614" /><path d="M 143.63769802327073 174.10635135553383 a86.0,86.0 0 0,1 -40.68552437913181,11.842963189579606" fill="none" id="id78" stroke="none" /><text fill="#e1ed5e" style="font-size:6.75px; font-family:Arial;" text-anchor="middle"><textPath startOffset="21.407464694133747" xlink:href="#id78">June</textPath></text><line stroke="#e1ed5e" stroke-width="0.3" x1="101.45913802915013" x2="101.54496967792366" y1="184.9874750549273" y2="189.98673829345242" /><path d="M 101.47630435890484 185.9873277026323 a86.0,86.0 0 0,1 -42.54439059252881,-10.42667462771756" fill="none" id="id79" stroke="none" /><text fill="#e1ed5e" style="font-size:6.75px; font-family:Arial;" text-anchor="middle"><textPath startOffset="22.145653131862474" xlink:href="#id79">July</textPath></text><line stroke="#e1ed5e" stroke-width="0.3" x1="58.13341422392154" x2="55.67067388415222" y1="173.97424548756322" y2="178.32567169271397" /><path d="M 57.64086615596768 174.84453072859336 a86.0,86.0 0 0,1 -31.369924170532247,-30.572349798747897" fill="none" id="id80" stroke="none" /><text fill="#e1ed5e" style="font-size:6.75px; font-family:Arial;" text-anchor="middle"><textPath startOffset="22.145653131862474" xlink:href="#id80">August</textPath></text><path d="M 84.58840730492382 114.26474011684316 l -21.69160200662478 20.07742298051735 a50.55720743156252,50.55720743156252 0 0,0 -0.5840616553290984,-0.6419860717492399 l 22.03306136279576 -19.702099333210437" fill="#faff18" stroke="none" /><path d="M 84.3458050057657 113.99807769240083 l -23.605968796034368 21.108602859040943 a52.6672524457058,52.6672524457058 0 0,0 -0.5968677797037019,-0.6791259677957098 l 23.964847639696664 -20.700264613433934" fill="#daff1c" stroke="none" /><path d="M 84.1078160697243 113.72728997021213 l -19.633629756564982 16.959061763858973 a46.94396256026163,46.94396256026163 0 0,0 -0.5215372226584583,-0.6143695369049695 l 19.921861542730554 -16.619525444504447" fill="#ffcb12" stroke="none" /><path d="M 83.8745106332314 113.45245675266167 l -20.14326102177735 16.804224764270625 a47.23228801533676,47.23228801533676 0 0,0 -0.5140518885972551,-0.6270597204207333 l 20.428759729613237 -16.455962762151394" fill="#ffd013" stroke="none" /><path d="M 83.64595745247003 113.17365903436017 l -11.244854677384154 9.058058946603555 a35.439362471924895,35.439362471924895 0 0,0 -0.3775702410300593,-0.47704766529484255 l 11.398691349055776 -8.863691337394032" fill="#ff0400" stroke="none" /><path d="M 83.4222238831116 112.89097897827486 l -23.5152632964202 18.28561097009485 a50.78810461324487,50.78810461324487 0 0,0 -0.5292798223110401,-0.692844277515692 l 23.825695096085536 -17.879245779338287" fill="#f6ff19" stroke="none" /><path d="M 83.20337586046588 112.60449989151573 l -23.869260782551333 17.91193828265147 a50.842572666359686,50.842572666359686 0 0,0 -0.5178630291665087,-0.7025806575388617 l 24.17322583130167 -17.49955131584373" fill="#f6ff19" stroke="none" /><path d="M 82.98947788004972 112.3143062007846 l -23.998662203904257 17.373180711571074 a50.62706863012282,50.62706863012282 0 0,0 -0.5035823925009584,-0.708351700403379 l 24.293359694935173 -16.95865178445819" fill="#f9ff18" stroke="none" /><path d="M 82.78059297857968 112.02048342749411 l -24.20888975794388 16.89968520817236 a50.52405296444917,50.52405296444917 0 0,0 -0.4903485967543259,-0.7154332569099143 l 24.49542809151353 -16.481617216192394" fill="#faff18" stroke="none" /><path d="M 82.576782715395 111.72311816256416 l -24.48069193119538 16.471702069876404 a50.50629164278129,50.50629164278129 0 0,0 -0.4778269442934755,-0.7234908950773492 l 24.759843314409583 -16.049031296459994" fill="#fbff18" stroke="none" /><path d="M 82.37810715431573 111.42229804090323 l -25.031596480527444 16.225178415508985 a50.83013974119217,50.83013974119217 0 0,0 -0.46832060819545,-0.736277782068707 l 25.306434780348784 -15.793086958761604" fill="#f6ff19" stroke="none" /><path d="M 82.18462484594161 111.11811171558189 l -25.281321716162672 15.777414549355273 a50.800537538412385,50.800537538412385 0 0,0 -0.4553470756007138,-0.7437752273325223 l 25.54843675621879 -15.341102205898194" fill="#f6ff19" stroke="none" /><path d="M 81.99639281039703 110.81064883170644 l -25.501740497520625 15.313062444242435 a50.746069485297575,50.746069485297575 0 0,0 -0.44203762935439883,-0.7506765333000751 l 25.760851837004793 -14.8730347426488" fill="#f7ff18" stroke="none" /><line stroke="#e1ed5e" stroke-width="0.3" x1="26.387840678322732" x2="22.057713659400548" y1="142.50000000000003" y2="145.00000000000006" /><path d="M 25.521815274538298 143.00000000000003 a86.0,86.0 0 0,1 -11.493303480769221,-40.785679425670985" fill="none" id="id81" stroke="none" /><text fill="#e1ed5e" style="font-size:6.75px; font-family:Arial;" text-anchor="middle"><textPath startOffset="21.40746469413373" xlink:href="#id81">September</textPath></text><path d="M 81.81346652052679 110.50000000000001 l -26.27614065527181 15.170536880585669 a51.34107376117131,51.34107376117131 0 0,0 -0.43411722399811414,-0.7670435384956727 l 26.532691244291303 -14.717236571990874" fill="#eeff19" stroke="none" /><path d="M 81.1358732173502 109.22738970284198 l -26.67703893989805 13.049076548973025 a50.69752187273872,50.69752187273872 0 0,0 -0.3756945701632949,-0.7850571566331206 l 26.897112768021255 -12.5892068902748" fill="#f8ff18" stroke="none" /><path d="M 80.9802524753101 108.90220220490708 l -27.231175112362017 12.745564935222887 a51.06636531937487,51.06636531937487 0 0,0 -0.3647975295853917,-0.7971484376162281 l 27.445957106802467 -12.276227515391971" fill="#f2ff19" stroke="none" /><path d="M 80.68587082218212 108.24405325689762 l -29.22085390227754 12.472644951503707 a52.77145219949065,52.77145219949065 0 0,0 -0.3484779317308376,-0.8362201772173277 l 29.430657678544865 -11.969192264845098" fill="#d8ff1c" stroke="none" /><path d="M 80.28708602549918 107.23885506374661 l -27.696745096838395 10.170628439452951 a50.505107554670104,50.505107554670104 0 0,0 -0.2918710126070058,-0.8164151685253495 l 27.867256279489343 -9.69367831454668" fill="#fbff18" stroke="none" /><path d="M 79.94057633289273 106.21446072829308 l -27.609583300180727 8.553519482459425 a49.90418283824041,49.90418283824041 0 0,0 -0.24648788053304782,-0.820477988456075 l 27.752347500717406 -8.078303890412625" fill="#fffa17" stroke="none" /><path d="M 79.83685265289637 105.86919833188381 l -29.1211775693708 8.476750373854456 a51.32982492411499,51.32982492411499 0 0,0 -0.23900512774419166,-0.8481448817197341 l 29.262401189189568 -7.975597568231726" fill="#eeff19" stroke="none" /><path d="M 79.64726062577567 105.17358676015961 l -28.984736824658192 7.367806756896437 a50.90651342436402,50.90651342436402 0 0,0 -0.2080197063512469,-0.8487913888119356 l 29.106944057525734 -6.8691595434764015" fill="#f5ff19" stroke="none" /><path d="M 79.34024301695615 103.76489593502545 l -35.12708133248605 6.401324363424366 a56.70558494892445,56.70558494892445 0 0,0 -0.16629637134710107,-0.959153278389102 l 35.23179252132538 -5.797378052114671" fill="#a0ff22" stroke="none" /><line stroke="#e1ed5e" stroke-width="0.3" x1="15.003131293944662" x2="10.003315487706104" y1="100.72959589197737" y2="100.7725132973878" /><path d="M 14.003168132696942 100.73817937305945 a86.0,86.0 0 0,1 10.791469493833604,-42.45332614584628" fill="none" id="id82" stroke="none" /><text fill="#e1ed5e" style="font-size:6.75px; font-family:Arial;" text-anchor="middle"><textPath startOffset="22.145653131862435" xlink:href="#id82">October</textPath></text><path d="M 79.01933749520258 99.09900007780938 l -26.62099867563259 -1.1432202262391438 a47.6455347661426,47.6455347661426 0 0,0 0.04210597117863454,-0.8168445921648496 l 26.597451114997384 1.6000366117807054" fill="#ffd614" stroke="none" /><path d="M 79.0935383218832 98.0201363427161 l -62.7193850343504 -5.9395909718517155 a84.0,84.0 0 0,0 0.14827043007334506,-1.4343819108683489 l 62.608182211795395 7.015377405002977" fill="#4dd2ff" stroke="none" /><path d="M 79.2786578344484 96.59031103205396 l -55.35181053235139 -9.108119359264187 a77.09617426769788,77.09617426769788 0 0,0 0.22609437918698483,-1.304052296907353 l 55.18730133567217 10.056964689092133" fill="#42ffd8" stroke="none" /><path d="M 79.56144815229197 95.17655741523228 l -42.8220226982437 -10.10588075846287 a64.99834603565421,64.99834603565421 0 0,0 0.2656032783651929,-1.08375201307097 l 42.64223189336221 10.839488596141956" fill="#32ff2f" stroke="none" /><path d="M 79.73907114497095 94.47779374421319 l -35.834717417943104 -9.766911582170613 a58.14188382779976,58.14188382779976 0 0,0 0.27072386068127297,-0.9607034751237172 l 35.66177506518725 10.380622981197343" fill="#8cff24" stroke="none" /><path d="M 80.05021161711548 93.44210830539832 l -43.037594056770175 -14.147312001698719 a66.30321113418725,66.30321113418725 0 0,0 0.36471368964591033,-1.078211218062432 l 42.7883949455519 14.884024894235313" fill="#31ff40" stroke="none" /><path d="M 80.68587082218212 91.75594674310238 l -39.49694131364796 -16.858895613488972 a63.94450761669376,63.94450761669376 0 0,0 0.43959144433132874,-1.0058712521571398 l 39.20171598729965 17.53442893542198" fill="#3fff2d" stroke="none" /><path d="M 80.9802524753101 91.09779779509293 l -12.8992034598098 -6.037478538156145 a35.24221180141151,35.24221180141151 0 0,0 0.26116281674618347,-0.5457298417806317 l 12.793661385103713 6.258020882001863" fill="#ff0000" stroke="none" /><line stroke="#e1ed5e" stroke-width="0.3" x1="26.387840678322718" x2="22.05771365940052" y1="57.49999999999999" y2="54.99999999999999" /><path d="M 25.521815274538284 56.99999999999999 a86.0,86.0 0 0,1 29.574782752854787,-30.34633250058573" fill="none" id="id83" stroke="none" /><text fill="#e1ed5e" style="font-size:6.75px; font-family:Arial;" text-anchor="middle"><textPath startOffset="21.40746469413373" xlink:href="#id83">November</textPath></text><path d="M 82.18462484594161 88.88188828441811 l -37.30796815489349 -23.282931414048058 a64.97703244965277,64.97703244965277 0 0,0 0.5986622014122988,-0.9411964157687889 l 36.9027882618553 23.91994150449552" fill="#32ff2f" stroke="none" /><path d="M 82.78059297857968 87.97951657250589 l -33.31756463017257 -23.25824768432819 a61.63257557959234,61.63257557959234 0 0,0 0.6130530703470086,-0.8623359181824245 l 32.91339646129559 23.826760829220134" fill="#5dff2a" stroke="none" /><path d="M 83.42222388311158 87.10902102172516 l -48.32280514383222 -37.57610555771785 a82.213211040212,82.213211040212 0 0,0 0.8758978644973906,-1.1066683384667209 l 47.67064084869327 38.40009384009926" fill="#4ae7ff" stroke="none" /><path d="M 84.10781606972428 86.27271002978789 l -33.79487974437333 -29.19121222072416 a65.65669902547668,65.65669902547668 0 0,0 0.7440746640506719,-0.8466203797875171 l 33.288794016364065 29.767044878322977" fill="#30ff36" stroke="none" /><path d="M 84.58840730492382 85.73525988315684 l -29.916978931298555 -27.69070906424813 a61.765193448045785,61.765193448045785 0 0,0 0.7269003447064368,-0.7719429761247115 l 29.43722275285585 28.20019350031735" fill="#5bff2a" stroke="none" /><path d="M 85.08716467003674 85.21462403516908 l -36.31979134627629 -36.009367644524964 a72.14490983075058,72.14490983075058 0 0,0 0.8795085637222113,-0.8719914416806852 l 35.6962908624241 36.62753909643432" fill="#3aff95" stroke="none" /><path d="M 85.60350026404147 84.71141617570332 l -41.76650361322079 -44.35457946375609 a81.92429354108128,81.92429354108128 0 0,0 1.0321299560526997,-0.9553240785168413 l 40.99894388585414 45.06502128840529" fill="#4aeaff" stroke="none" /><path d="M 86.40962598614128 83.9905735841838 l -16.41672633576805 -19.338862344263564 a46.36731165011136,46.36731165011136 0 0,0 0.6112219962221119,-0.5099031281120893 l 16.08233000538403 19.617827656287535" fill="#ffc212" stroke="none" /><path d="M 87.25179093698888 83.31218511350988 l -35.7011192188349 -46.73391107877782 a79.81010421854883,79.81010421854883 0 0,0 1.0958573812447576,-0.8223518088081457 l 34.893608848679385 47.33988191484997" fill="#46fffa" stroke="none" /><line stroke="#e1ed5e" stroke-width="0.3" x1="56.869717070023135" x2="54.33264160355391" y1="26.7553504044142" y2="22.446841604673864" /><path d="M 56.362301976729285 25.89364864446614 a86.0,86.0 0 0,1 42.16139366436587,-11.88097634709845" fill="none" id="id84" stroke="none" /><text fill="#e1ed5e" style="font-size:6.75px; font-family:Arial;" text-anchor="middle"><textPath startOffset="22.145653131862474" xlink:href="#id84">December</textPath></text></svg>