<?xml version="1.0" encoding="utf-8" ?>
<svg baseProfile="full" height="200mm" version="1.1" viewBox="0,0,200,200" width="200mm" xmlns="http://www.w3.org/2000/svg" xmlns:ev="http://www.w3.org/2001/xml-events" xmlns:xlink="http://www.w3.org/1999/xlink"><defs /><rect fill="#1a1a1a" height="200" width="200" x="0" y="0" /><text alignment-baseline="middle" fill="#e1ed5e" style="dominant-baseline: central; font-size:9.0px; font-family:Arial;" text-anchor="middle" x="100.0" y="100.0">2025</text><line stroke="#e1ed5e" stroke-width="0.3" x1="100.0" x2="100.0" y1="15.0" y2="10.0" /><path d="M 100.0 14.0 a86.0,86.0 0 0,1 42.46469731375804,11.215312516191453" fill="none" id="id85" stroke="none" /><text fill="#e1ed5e" style="font-size:6.75px; font-family:Arial;" text-anchor="middle"><textPath startOffset="22.20632615414155" xlink:href="#id85">January</textPath></text><path d="M 100.36148047927253 79.00311137660856 l 0.8710554185509367 -50.59596480817654 a71.60346225716602,71.60346225716602 0 0,0 1.2321706708366367,0.031823333170135075 l -1.7418527245824411 50.573474682864045" fill="#3cffa5" stroke="none" /><path d="M 101.08401301168833 79.027996857942 l 1.9883381492289065 -38.4676507232661 a59.519003631491735,59.519003631491735 0 0,0 1.0227007297854847,0.06169210089520875 l -2.6502009278540033 38.427725352990585" fill="#4dff2c" stroke="none" /><path d="M 101.80526077348638 79.07773832637324 l 4.398807506836968 -50.98044729140145 a72.16986919578324,72.16986919578324 0 0,0 1.2367677383212472,0.11744599915127168 l -5.275700372248459 50.897175747735" fill="#3dffac" stroke="none" /><path d="M 102.52436894288641 79.15227682838746 l 4.672414401558891 -38.58754571563382 a59.8693985121461,59.8693985121461 0 0,0 1.0220141704618404,0.132686771329039 l -5.3359433005285775 38.50140062114065" fill="#49ff2c" stroke="none" /><path d="M 103.59715602781102 79.31037775812273 l 6.53735516727946 -37.60065113280704 a59.16472164439587,59.16472164439587 0 0,0 1.0018696988255225,0.18308528367040985 l -7.183619987207884 37.48255036778589" fill="#51ff2b" stroke="none" /><path d="M 104.66035177308747 79.52364482259891 l 8.653806435184618 -38.0225405358029 a59.99489652011423,59.99489652011423 0 0,0 1.0049896904243196,0.23784858980881354 l -9.307019812571461 37.867946033853215" fill="#48ff2c" stroke="none" /><path d="M 105.71112130821622 79.79150937346287 l 10.12912055454319 -35.84133950842024 a58.24514332052321,58.24514332052321 0 0,0 0.962458785824883,0.28096811193993415 l -10.7445695580915 35.6616730675616" fill="#5bff2a" stroke="none" /><path d="M 106.40334571778207 80.00007090966166 l 15.268366183308249 -47.68854509033986 a71.07314987836264,71.07314987836264 0 0,0 1.1619349157419587,0.3830716733284279 l -16.086983921292624 47.41865969275219" fill="#3bff9f" stroke="none" /><path d="M 107.08798089147638 80.2323363322302 l 13.502787276503705 -37.65791154718662 a61.00554419490181,61.00554419490181 0 0,0 0.9854361341320425,0.36294444463847 l -14.149005736408325 37.41990383474183" fill="#3dff2e" stroke="none" /><path d="M 108.09893153111575 80.62456947434976 l 2.5150861659932833 -6.01695138278487 a27.521454006980925,27.521454006980925 0 0,0 0.43551553217840816,0.18646502225064704 l -2.618285455962007 5.972766832571432" fill="#ff0000" stroke="none" /><path d="M 109.08828744355905 81.06846463323043 l 19.326829791413005 -40.259131766676 a65.65785530444593,65.65785530444593 0 0,0 1.0146600282268685,0.49788926923080307 l -20.016961086650305 39.92048733731036" fill="#34ff5c" stroke="none" /><line stroke="#e1ed5e" stroke-width="0.3" x1="143.23703022742887" x2="145.7803849466894" y1="26.81831364943548" y2="22.513508569990506" /><path d="M 143.74570117128098 25.957352633546492 a86.0,86.0 0 0,1 28.547481713284135,27.462654790039103" fill="none" id="id86" stroke="none" /><text fill="#e1ed5e" style="font-size:6.75px; font-family:Arial;" text-anchor="middle"><textPath startOffset="19.985693538727396" xlink:href="#id86">February</textPath></text><path d="M 112.77801427241765 83.33499621200491 l 4.873355247622248 -6.355798477794661 a29.00910517223143,29.00910517223143 0 0,0 0.3936500275258164,0.30725009045717216 l -4.982037830307495 6.270969998114264" fill="#ff1802" stroke="none" /><path d="M 115.68641384162765 86.03803664274999 l 8.775387949973773 -7.810685491290979 a32.747946268025245,32.747946268025245 0 0,0 0.37115607918597376,0.42429555932530477 l -8.908535892737595 7.658474375762727" fill="#ff5207" stroke="none" /><line stroke="#e1ed5e" stroke-width="0.3" x1="172.23445277983987" x2="176.4835382374775" y1="55.19839476539836" y2="52.563006222186495" /><path d="M 173.08426987136738 54.67131705675599 a86.0,86.0 0 0,1 12.851231095245387,41.99856678651699" fill="none" id="id87" stroke="none" /><text fill="#e1ed5e" style="font-size:6.75px; font-family:Arial;" text-anchor="middle"><textPath startOffset="22.20632615414155" xlink:href="#id87">March</textPath></text><path d="M 118.21658344932153 89.55222093294921 l 15.087785851275843 -8.653316008660004 a38.39313542291013,38.39313542291013 0 0,0 0.3238595508092068,0.5761100036697892 l -15.234503043377483 8.39232249505542" fill="#ffa50f" stroke="none" /><path d="M 118.89224826269711 90.83032412892265 l 17.10163773517197 -8.300572420792685 a40.009616401650035,40.009616401650035 0 0,0 0.295388723362396,0.6221639849176882 l -17.24198465237612 8.004966020234457" fill="#ffbc11" stroke="none" /><path d="M 119.47837535516314 92.15188598940014 l 19.012070067776182 -7.660232989085999 a41.49726756690053,41.49726756690053 0 0,0 0.2612479254585317,0.6648474746185512 l -19.141111543116416 7.331836509571663" fill="#ffd113" stroke="none" /><path d="M 119.7369772167798 92.82701384747503 l 26.45421591062655 -9.614224220794314 a49.14709304375418,49.14709304375418 0 0,0 0.28212050731324795,0.7975926649306403 l -26.61578949874961 9.15743392943706" fill="#c8ff1d" stroke="none" /><path d="M 120.08093135843002 93.85539295169968 l 42.5748949878599 -13.027582991723486 a65.5234724817544,65.5234724817544 0 0,0 0.3207345986613336,1.0813576209761186 l -42.792835483632935 12.292795984000838" fill="#34ff5a" stroke="none" /><path d="M 120.28053869075195 94.5502522615342 l 16.067373507217656 -4.3175940131202735 a37.6373708705003,37.6373708705003 0 0,0 0.16274339684758313,0.627116695263411 l -16.139313235935543 4.040380892308011" fill="#ff9a0e" stroke="none" /><line stroke="#e1ed5e" stroke-width="0.3" x1="184.98032266829074" x2="189.97916517819016" y1="98.17113171792111" y2="98.06355123074" /><path d="M 185.9800911702706 98.14961562048488 a86.0,86.0 0 0,1 -9.607161424134198,41.387399972396054" fill="none" id="id88" stroke="none" /><text fill="#e1ed5e" style="font-size:6.75px; font-family:Arial;" text-anchor="middle"><textPath startOffset="21.466115282336823" xlink:href="#id88">April</textPath></text><path d="M 120.99980553446 99.90962569577887 l 22.053571822473256 -0.09490926979186387 a43.05377604625745,43.05377604625745 0 0,0 -0.003189470290109188,0.7411205699173002 l -22.051938054893643 -0.28472077832912107" fill="#ffe615" stroke="none" /><path d="M 120.92983693683757 101.71520430193887 l 37.50147421394371 3.0732532744961185 a58.62719035362973,58.62719035362973 0 0,0 -0.09108265497275829,1.0050895078291626 l -37.443016962693875 -3.7183241708738515" fill="#57ff2a" stroke="none" /><path d="M 120.81339534386255 102.79330883721812 l 29.21510766769001 3.920879658517676 a50.47703874766421,50.47703874766421 0 0,0 -0.12298598044742973,0.860163660803427 l -29.143287636225978 -4.423188791301512" fill="#b7ff1f" stroke="none" /><path d="M 120.49622156327973 104.57218783832717 l 38.09682701387527 8.49843707114092 a60.033212283608925,60.033212283608925 0 0,0 -0.23367051416348467,1.006646459290754 l -37.94489593378123 -9.152952187780238" fill="#47ff2c" stroke="none" /><path d="M 120.32669344350535 105.2749913415812 l 33.05497461627892 8.578114555703586 a55.149895991256216,55.149895991256216 0 0,0 -0.2463675158328883,0.9168251773796681 l -32.902419024104255 -9.145830666258801" fill="#7fff26" stroke="none" /><path d="M 119.9155931802556 106.66101706037122 l 36.5273100141657 12.217011713969127 a59.51622712689067,59.51622712689067 0 0,0 -0.33331685798988375,0.9687748114813473 l -36.311602325232585 -12.843959228539775" fill="#4dff2c" stroke="none" /><path d="M 119.67450827220406 107.3425965602758 l 35.7963953789428 13.359342248519274 a59.20803511617248,59.20803511617248 0 0,0 -0.36456845878807775,0.951773205206451 l -35.56113264056121 -13.973539020558869" fill="#50ff2b" stroke="none" /><path d="M 119.41010516605496 108.01547362559984 l 35.774699613383554 14.77329250726124 a59.705029439763074,59.705029439763074 0 0,0 -0.4004473721178542,0.9465392974451807 l -35.515101260073386 -15.386906330372586" fill="#4bff2c" stroke="none" /><path d="M 119.12269723197855 108.67885076344098 l 18.765027349329856 8.516522013661149 a41.6072171491027,41.6072171491027 0 0,0 -0.30160355108335707,0.6496272171220419 l -18.61564918140667 -8.838269298062022" fill="#ffd213" stroke="none" /><path d="M 118.81262510543309 109.33194174019688 l 34.88142456107946 17.30281765541898 a59.93714522441208,59.93714522441208 0 0,0 -0.4664289524660473,0.9203085733416974 l -34.57841693882715 -17.900680440463372" fill="#48ff2c" stroke="none" /><line stroke="#e1ed5e" stroke-width="0.3" x1="174.80103733775053" x2="179.2010983576182" y1="140.37084112569926" y2="142.7455964860345" /><path d="M 175.68104954172406 140.8457921977663 a86.0,86.0 0 0,1 -30.038265399797805,32.042727171017184" fill="none" id="id89" stroke="none" /><text fill="#e1ed5e" style="font-size:6.75px; font-family:Arial;" text-anchor="middle"><textPath startOffset="22.206326154141568" xlink:href="#id89">May</textPath></text><path d="M 117.94076556474637 110.91462005526583 l 23.28004568786536 14.162876864718237 a48.24972675669005,48.24972675669005 0 0,0 -0.4377751939765843,0.705833003346586 l -23.032805854220815 -14.561506199430097" fill="#d3ff1c" stroke="none" /><path d="M 116.71984013943494 112.70617746262583 l 29.74767453923439 22.606629527782214 a58.36286711560836,58.36286711560836 0 0,0 -0.6147365873133497,0.7946299064284011 l -29.354131134702968 -23.11533742832387" fill="#5aff2a" stroke="none" /><path d="M 114.29624159901734 115.38237550388516 l 19.606738634833256 21.096328989590404 a49.80068222684483,49.80068222684483 0 0,0 -0.6329440249144012,0.5781793598013222 l -19.24069506045199 -21.43070111597831" fill="#bfff1e" stroke="none" /><path d="M 113.75828350139079 115.86535959552629 l 9.27421719363574 10.694560170181823 a35.15573105806861,35.15573105806861 0 0,0 -0.4605978719165336,0.3925314989047011 l -9.088753845142161 -10.852616059309472" fill="#ff760a" stroke="none" /><path d="M 112.63410532772338 116.77436683061366 l 23.403139999762306 31.07246972864687 a59.899940062757814,59.899940062757814 0 0,0 -0.8289439453935518,0.6132329135512888 l -22.86481108395019 -31.47071259093793" fill="#49ff2c" stroke="none" /><path d="M 111.45004920935366 117.60387380957326 l 19.472814447508583 29.938471178896034 a56.7141786834961,56.7141786834961 0 0,0 -0.8229448727058725,0.5252423540499193 l -18.95458777275578 -30.26922796176976" fill="#6cff28" stroke="none" /><line stroke="#e1ed5e" stroke-width="0.3" x1="143.8653032363475" x2="146.44561519142675" y1="172.8068346515853" y2="177.08958963109032" /><path d="M 144.38136562736335 173.6633856474863 a86.0,86.0 0 0,1 -40.68145358897372,12.25698825130547" fill="none" id="id90" stroke="none" /><text fill="#e1ed5e" style="font-size:6.75px; font-family:Arial;" text-anchor="middle"><textPath startOffset="21.466115282336833" xlink:href="#id90">June</textPath></text><path d="M 110.5260780823613 118.17145234162733 l 6.212828038546339 10.725372520117677 a33.394871840073336,33.394871840073336 0 0,0 -0.4998913876874085,0.2838513762927239 l -6.027287883937731 -10.83072706220503" fill="#ff5c08" stroke="none" /><path d="M 109.89434966115114 118.52300852407294 l 15.901932395773674 29.76968061606569 a54.75063462962309,54.75063462962309 0 0,0 -0.835101255443627,0.4368855075253073 l -15.387140237803552 -30.038995542535712" fill="#83ff25" stroke="none" /><path d="M 107.93186726928326 119.44442032107085 l 5.19760611007585 12.74156947369257 a34.760912103797196,34.760912103797196 0 0,0 -0.5559741787250795,0.22123359971408424 l -4.977510855308905 -12.829149917812723" fill="#ff700a" stroke="none" /><path d="M 107.2578585660854 119.70592522655815 l 4.963021079900801 13.475176101579356 a35.36008179670698,35.36008179670698 0 0,0 -0.5729687699977127,0.2054462156687792 l -4.730332749273353 -13.558609858288095" fill="#ff790b" stroke="none" /><path d="M 105.88484417918355 120.15858648285463 l 8.502503290547809 29.125401231446617 a51.34108697951556,51.34108697951556 0 0,0 -0.8504744740859006,0.2403525815365821 l -7.999897648357303 -29.26744260632172" fill="#acff20" stroke="none" /><path d="M 104.83641907484287 120.43548508189849 l 12.546033943724922 53.0111815222118 a75.47557557381094,75.47557557381094 0 0,0 -1.2668390287021252,0.28832843845883094 l -11.631674765629933 -53.21928669424831" fill="#41ffd2" stroke="none" /><path d="M 103.41894727170886 120.7198165907248 l 4.313764474921242 26.14266955081709 a47.49618340796107,47.49618340796107 0 0,0 -0.8078063489902806,0.1261627383356371 l -3.8631222623224435 -26.213050596499833" fill="#ddff1b" stroke="none" /><path d="M 102.70371172650421 120.8252237178851 l 2.037292494406372 15.692158139076971 a36.82385502238832,36.82385502238832 0 0,0 -0.62928913071747,0.07619815001391503 l -1.7668759406375216 -15.724901817816237" fill="#ff8f0d" stroke="none" /><path d="M 101.62511606390274 120.93702456842531 l 1.8470131917269863 23.7958146081732 a44.867388851672956,44.867388851672956 0 0,0 -0.7705167260250254,0.0531393446653656 l -1.4371337049230306 -23.82408229735485" fill="#ffff18" stroke="none" /><line stroke="#e1ed5e" stroke-width="0.3" x1="102.19456741930631" x2="102.32365962044197" y1="184.97166512339345" y2="189.96999836594603" /><path d="M 102.22038585953345 185.97133177190398 a86.0,86.0 0 0,1 -42.740103519485714,-10.115201625700543" fill="none" id="id91" stroke="none" /><text fill="#e1ed5e" style="font-size:6.75px; font-family:Arial;" text-anchor="middle"><textPath startOffset="22.20632615414155" xlink:href="#id91">July</textPath></text><path d="M 99.81925306533755 120.99922214144158 l -0.16622530164189134 19.312095340510435 a40.31281070408631,40.31281070408631 0 0,0 -0.6938416572468158,-0.01194511335938632 l 0.498626648781375 -19.306372749871887" fill="#ffc011" stroke="none" /><path d="M 99.09653310690486 120.98055641714683 l -1.66520068529027 38.66974782431252 a59.70558474068328,59.70558474068328 0 0,0 -1.0264013558921996,-0.05305322612556571 l 2.3305901095959585 -38.63535479142475" fill="#4bff2c" stroke="none" /><path d="M 97.65516085044442 120.86867818915974 l -3.78933380952138 33.72444026158132 a54.93666043789443,54.93666043789443 0 0,0 -0.9388219476332365,-0.11367826347256009 l 4.369283180206006 -33.654216469383414" fill="#81ff25" stroke="none" /><path d="M 96.93821686468263 120.77559828337769 l -3.9696688178545725 26.936017684103195 a48.22695941896133,48.22695941896133 0 0,0 -0.8202352529362101,-0.12810387751867158 l 4.4327399343993 -26.86369549923742" fill="#d3ff1c" stroke="none" /><path d="M 92.40401165467489 119.57807347666478 l -9.787504497699526 25.22653715326979 a48.05870324013679,48.05870324013679 0 0,0 -0.7686621681486102,-0.30586654008555597 l 10.220287741889994 -25.054323768778165" fill="#d6ff1c" stroke="none" /><path d="M 90.42595943632237 118.69057910512821 l -11.774216722548372 22.985794512779933 a46.825935197264045,46.825935197264045 0 0,0 -0.7142272876851642,-0.3736499604505988 l 12.168134912760031 -22.779715133384617" fill="#e5ff1a" stroke="none" /><line stroke="#e1ed5e" stroke-width="0.3" x1="58.666819895761336" x2="56.23545636021788" y1="174.27360380694188" y2="178.64263932499728" /><path d="M 58.180547188652646 175.14741091055294 a86.0,86.0 0 0,1 -31.652253787137756,-30.449443065178592" fill="none" id="id92" stroke="none" /><text fill="#e1ed5e" style="font-size:6.75px; font-family:Arial;" text-anchor="middle"><textPath startOffset="22.20632615414155" xlink:href="#id92">August</textPath></text><path d="M 89.1626897886671 117.98757091392108 l -20.122366685982808 33.39873923157926 a59.992120015513166,59.992120015513166 0 0,0 -0.8799438478540629,-0.5405333812548185 l 20.69428973376918 -33.04741738349607" fill="#48ff2c" stroke="none" /><path d="M 88.54995079064634 117.60387380957326 l -8.533643398943163 13.120046803656761 a36.65115643620209,36.65115643620209 0 0,0 -0.5259009883174944,-0.348538498552439 l 8.758219086000619 -12.971210284013004" fill="#ff8c0c" stroke="none" /><path d="M 87.36589467227662 116.77436683061367 l -23.251132509613665 30.870648599677903 a59.64727814406092,59.64727814406092 0 0,0 -0.8148138344328293,-0.6247645027987505 l 23.77907507253998 -30.465844755051787" fill="#4bff2c" stroke="none" /><path d="M 86.24171649860922 115.8653595955263 l -9.463034027289309 10.912294232959344 a35.44393223565913,35.44393223565913 0 0,0 -0.45749280359695776,-0.40368420739813554 l 9.649469183792855 -10.747786883788919" fill="#ff7a0b" stroke="none" /><path d="M 85.70375840098266 115.38237550388516 l -26.307393070433744 28.306054842101545 a59.64339103761943,59.64339103761943 0 0,0 -0.746008644809454,-0.7053977371791832 l 26.790737549634017 -27.849022468176432" fill="#4bff2c" stroke="none" /><path d="M 84.9287848128048 114.62390073753433 l -33.2036464197111 32.21816046914316 a67.26545146846243,67.26545146846243 0 0,0 -0.799156640948479,-0.8379125430483327 l 33.753309612038535 -31.64184080951232" fill="#36ff70" stroke="none" /><path d="M 84.43433777217949 114.09645910891817 l -18.97193709410845 17.181224386719457 a46.59548531537567,46.59548531537567 0 0,0 -0.5332767877091118,-0.5991421242196041 l 19.2648727314659 -16.85210809275899" fill="#e8ff1a" stroke="none" /><path d="M 83.72743513129214 113.27417163493432 l -31.566354725392447 25.749917968976714 a61.736875506822265,61.736875506822265 0 0,0 -0.6646477008472139,-0.8292502010627922 l 32.004920338294525 -25.20273993433566" fill="#35ff2f" stroke="none" /><path d="M 83.06392112726016 112.41649034213515 l -19.14108910640024 14.033068091700407 a44.734116630821845,44.734116630821845 0 0,0 -0.4499404477455229,-0.6249279290148801 l 19.379809346521373 -13.70150655723439" fill="#fffd17" stroke="none" /><path d="M 82.44556493220864 111.52570212397912 l -28.835030285304757 18.93219397382484 a55.494737862708455,55.494737862708455 0 0,0 -0.5174095134135257,-0.8030310549761177 l 29.156644662095328 -18.433041318927277" fill="#7aff26" stroke="none" /><path d="M 82.05923443525364 110.91462005526583 l -38.71152038086512 23.550920120659615 a66.312555089377,66.312555089377 0 0,0 -0.5848739706603412,-0.9802824167146715 l 39.11117522722369 -22.881075610058833" fill="#35ff64" stroke="none" /><line stroke="#e1ed5e" stroke-width="0.3" x1="26.63291911575756" x2="22.317208475507996" y1="142.92168965132927" y2="145.44649492493687" /><path d="M 25.769776987707644 143.4266507060508 a86.0,86.0 0 0,1 -11.730757126820373,-40.83630448921669" fill="none" id="id93" stroke="none" /><text fill="#e1ed5e" style="font-size:6.75px; font-family:Arial;" text-anchor="middle"><textPath startOffset="21.46611528233685" xlink:href="#id93">September</textPath></text><path d="M 81.69416730710424 110.29060199501025 l -20.94234246092026 11.77271281366895 a45.024539012093214,45.024539012093214 0 0,0 -0.37396865510855076,-0.6788617355607662 l 21.14188752548033 -11.410480559710361" fill="#fdff18" stroke="none" /><path d="M 81.35079622478065 109.6543875284942 l -25.261540896309977 13.077486219757528 a49.445844938828756,49.445844938828756 0 0,0 -0.38478598825930416,-0.7592192594917829 l 25.48290555435555 -12.640712748563061" fill="#c4ff1e" stroke="none" /><path d="M 80.20201598880116 107.00284435728193 l -38.477388556969245 13.610030353934011 a61.81350703381165,61.81350703381165 0 0,0 -0.34618262851102344,-1.0061687629494558 l 38.7059620164235 -12.945688887895258" fill="#34ff2f" stroke="none" /><path d="M 79.50377843672027 104.57218783832718 l -34.654172868422926 7.730468137608143 a56.505940838416244,56.505940838416244 0 0,0 -0.20359887291993548,-0.9511461527270462 l 34.782105780067305 -7.132808165464933" fill="#6fff28" stroke="none" /><path d="M 79.29508885075956 103.50808413554451 l -44.991188659520745 7.62296800204066 a66.63240841941968,66.63240841941968 0 0,0 -0.18186917872776642,-1.132499549545508 l 45.1157395926098 -6.847389222801938" fill="#35ff68" stroke="none" /><path d="M 79.04373962182676 101.35467743843564 l -38.107950585620216 2.4634157025997054 a59.18748898212459,59.18748898212459 0 0,0 -0.05697119686346448,-1.017258991082544 l 38.14470813337121 -1.8070849951817236" fill="#51ff2b" stroke="none" /><line stroke="#e1ed5e" stroke-width="0.3" x1="15.007084014347285" x2="10.007500721073583" y1="101.09737516637583" y2="101.16192664675087" /><path d="M 14.007167355692545 101.11028546245083 a86.0,86.0 0 0,1 10.666146001902534,-42.60595125391555" fill="none" id="id94" stroke="none" /><text fill="#e1ed5e" style="font-size:6.75px; font-family:Arial;" text-anchor="middle"><textPath startOffset="22.20632615414155" xlink:href="#id94">October</textPath></text><path d="M 79.00019446554 99.90962569577889 l -40.96083776691218 -0.1762781663584612 a61.9612170785883,61.9612170785883 0 0,0 0.01377012186111682,-1.0665111133501866 l 40.95173463793334 0.8813255377691197" fill="#32ff2f" stroke="none" /><path d="M 79.16333360222342 97.38593545837743 l -36.61880845104439 -4.594013596078795 a57.905854458273105,57.905854458273105 0 0,0 0.1325878647775495,-0.9879335971177439 l 36.53430458720901 5.223665535261198" fill="#5fff29" stroke="none" /><path d="M 79.26566170972629 96.67025291283419 l -33.33518407913413 -5.353328885335154 a54.76229594894757,54.76229594894757 0 0,0 0.1574758624397893,-0.9294314543171178 l 33.238096355174115 5.9263461279681" fill="#83ff25" stroke="none" /><path d="M 79.3925641242962 95.95851677861259 l -37.88286523143518 -7.429500940067679 a59.604519973204525,59.604519973204525 0 0,0 0.2061201051001372,-1.0051148345336391 l 37.749365830420054 8.08049143076472" fill="#4cff2c" stroke="none" /><path d="M 79.81627453868168 94.20196356495316 l -35.949525682174425 -10.326966650798143 a58.4034040827839,58.4034040827839 0 0,0 0.2858821680148687,-0.9638525509076235 l 35.76643761704785 10.944248588452306" fill="#59ff2a" stroke="none" /><path d="M 80.02781315780177 93.51064311812611 l -36.485346965939726 -11.854807853125317 a59.36296407291189,59.36296407291189 0 0,0 0.3241294338251965,-0.9691057511642882 l 36.27588023834276 12.481086707211928" fill="#4fff2b" stroke="none" /><path d="M 80.65960295795068 91.81776055985345 l -34.82693204614772 -14.734045859955028 a58.815437365581914,58.815437365581914 0 0,0 0.4024916549571452,-0.9290062326512768 l 34.56814968134789 15.331351237192905" fill="#55ff2b" stroke="none" /><path d="M 80.95270993114464 91.15688171328213 l -10.208294480015173 -4.739422524993773 a32.25483905087614,32.25483905087614 0 0,0 0.23813564303768772,-0.5015743963979782 l 10.125200643135734 4.914439337032284" fill="#ff4a06" stroke="none" /><line stroke="#e1ed5e" stroke-width="0.3" x1="26.266209847984243" x2="21.928928074336255" y1="57.711370442889674" y2="55.22380399835377" /><path d="M 25.398753493254645 57.213857153982495 a86.0,86.0 0 0,1 29.58750427330803,-30.492523968695096" fill="none" id="id95" stroke="none" /><text fill="#e1ed5e" style="font-size:6.75px; font-family:Arial;" text-anchor="middle"><textPath startOffset="21.46611528233685" xlink:href="#id95">November</textPath></text><path d="M 82.95767976084542 87.72973835380427 l -31.380449728518403 -22.59353910388165 a59.667824278108796,59.667824278108796 0 0,0 0.607297375152313,-0.8283529372132449 l 30.986889740852458 23.130354484766396" fill="#4bff2c" stroke="none" /><path d="M 83.6137871275137 86.86637796730984 l -29.748576428095213 -23.84361547464238 a59.12473997814054,59.12473997814054 0 0,0 0.6433377257426814,-0.7886559826515741 l 29.333740210276137 24.352155626902036" fill="#51ff2b" stroke="none" /><path d="M 84.5562425177563 85.77008943001954 l -29.636790043403106 -27.307400571641452 a61.299298381694456,61.299298381694456 0 0,0 0.7216757000113532,-0.7698333193890798 l 29.162347021421297 27.813503307908583" fill="#39ff2e" stroke="none" /><path d="M 85.31137513191541 84.99185889309783 l -28.213314877690873 -28.827028709670007 a61.335948242428515,61.335948242428515 0 0,0 0.7609067755273096,-0.7319917151916158 l 27.712924858551137 29.308403511623936" fill="#39ff2e" stroke="none" /><path d="M 85.83668400450813 84.49514656593479 l -42.48994798647562 -46.514560302195655 a84.0,84.0 0 0,0 1.0759560496161145,-0.9660039649228849 l 41.68298094926353 47.23906327588782" fill="#4dd2ff" stroke="none" /><line stroke="#e1ed5e" stroke-width="0.3" x1="56.762969772571076" x2="54.21961505331055" y1="26.818313649435495" y2="22.513508569990535" /><path d="M 56.25429882871897 25.957352633546506 a86.0,86.0 0 0,1 42.265352541879196,-11.944610805530505" fill="none" id="id96" stroke="none" /><text fill="#e1ed5e" style="font-size:6.75px; font-family:Arial;" text-anchor="middle"><textPath startOffset="22.20632615414155" xlink:href="#id96">December</textPath></text><path d="M 89.3179101791058 81.91981866633112 l -22.305166188257548 -37.7530479637511 a64.84989246553609,64.84989246553609 0 0,0 0.9659646791663001,-0.5595490908789353 l 21.652004776625926 38.13140121202008" fill="#33ff51" stroke="none" /></svg>