<?xml version="1.0" encoding="utf-8" ?>
<svg baseProfile="full" height="200mm" version="1.1" viewBox="0,0,200,200" width="200mm" xmlns="http://www.w3.org/2000/svg" xmlns:ev="http://www.w3.org/2001/xml-events" xmlns:xlink="http://www.w3.org/1999/xlink"><defs /><rect fill="#1a1a1a" height="200" width="200" x="0" y="0" /><text alignment-baseline="middle" fill="#e1ed5e" style="dominant-baseline: central; font-size:9.0px; font-family:Arial;" text-anchor="middle" x="100.0" y="100.0">2018</text><line stroke="#e1ed5e" stroke-width="0.3" x1="100.0" x2="100.0" y1="15.0" y2="10.0" /><path d="M 100.0 14.0 a86.0,86.0 0 0,1 42.46469731375804,11.215312516191453" fill="none" id="id1" stroke="none" /><text fill="#e1ed5e" style="font-size:6.75px; font-family:Arial;" text-anchor="middle"><textPath startOffset="22.20632615414155" xlink:href="#id1">January</textPath></text><line stroke="#e1ed5e" stroke-width="0.3" x1="143.23703022742887" x2="145.7803849466894" y1="26.81831364943548" y2="22.513508569990506" /><path d="M 143.74570117128098 25.957352633546492 a86.0,86.0 0 0,1 28.547481713284135,27.462654790039103" fill="none" id="id2" stroke="none" /><text fill="#e1ed5e" style="font-size:6.75px; font-family:Arial;" text-anchor="middle"><textPath startOffset="19.985693538727396" xlink:href="#id2">February</textPath></text><line stroke="#e1ed5e" stroke-width="0.3" x1="172.23445277983987" x2="176.4835382374775" y1="55.19839476539836" y2="52.563006222186495" /><path d="M 173.08426987136738 54.67131705675599 a86.0,86.0 0 0,1 12.851231095245387,41.99856678651699" fill="none" id="id3" stroke="none" /><text fill="#e1ed5e" style="font-size:6.75px; font-family:Arial;" text-anchor="middle"><textPath startOffset="22.20632615414155" xlink:href="#id3">March</textPath></text><line stroke="#e1ed5e" stroke-width="0.3" x1="184.98032266829074" x2="189.97916517819016" y1="98.17113171792111" y2="98.06355123074" /><path d="M 185.9800911702706 98.14961562048488 a86.0,86.0 0 0,1 -9.607161424134198,41.387399972396054" fill="none" id="id4" stroke="none" /><text fill="#e1ed5e" style="font-size:6.75px; font-family:Arial;" text-anchor="middle"><textPath startOffset="21.466115282336823" xlink:href="#id4">April</textPath></text><line stroke="#e1ed5e" stroke-width="0.3" x1="174.80103733775053" x2="179.2010983576182" y1="140.37084112569926" y2="142.7455964860345" /><path d="M 175.68104954172406 140.8457921977663 a86.0,86.0 0 0,1 -30.038265399797805,32.042727171017184" fill="none" id="id5" stroke="none" /><text fill="#e1ed5e" style="font-size:6.75px; font-family:Arial;" text-anchor="middle"><textPath startOffset="22.206326154141568" xlink:href="#id5">May</textPath></text><line stroke="#e1ed5e" stroke-width="0.3" x1="143.8653032363475" x2="146.44561519142675" y1="172.8068346515853" y2="177.08958963109032" /><path d="M 144.38136562736335 173.6633856474863 a86.0,86.0 0 0,1 -40.68145358897372,12.25698825130547" fill="none" id="id6" stroke="none" /><text fill="#e1ed5e" style="font-size:6.75px; font-family:Arial;" text-anchor="middle"><textPath startOffset="21.466115282336833" xlink:href="#id6">June</textPath></text><line stroke="#e1ed5e" stroke-width="0.3" x1="102.19456741930631" x2="102.32365962044197" y1="184.97166512339345" y2="189.96999836594603" /><path d="M 102.22038585953345 185.97133177190398 a86.0,86.0 0 0,1 -42.740103519485714,-10.115201625700543" fill="none" id="id7" stroke="none" /><text fill="#e1ed5e" style="font-size:6.75px; font-family:Arial;" text-anchor="middle"><textPath startOffset="22.20632615414155" xlink:href="#id7">July</textPath></text><line stroke="#e1ed5e" stroke-width="0.3" x1="58.666819895761336" x2="56.23545636021788" y1="174.27360380694188" y2="178.64263932499728" /><path d="M 58.180547188652646 175.14741091055294 a86.0,86.0 0 0,1 -31.652253787137756,-30.449443065178592" fill="none" id="id8" stroke="none" /><text fill="#e1ed5e" style="font-size:6.75px; font-family:Arial;" text-anchor="middle"><textPath startOffset="22.20632615414155" xlink:href="#id8">August</textPath></text><path d="M 83.06392112726016 112.41649034213515 l -30.927330163944653 22.6740144028699 a59.348542087166656,59.348542087166656 0 0,0 -0.5969338753264923,-0.8290889435163554 l 31.313043831646752 -22.13829185390241" fill="#e9ff1a" stroke="none" /><path d="M 82.6465618267979 111.8261652097733 l -29.596582626634405 20.16972500168819 a56.815855564525094,56.815855564525094 0 0,0 -0.5438005015191437,-0.8129079659501711 l 29.939386233564278 -19.657280121532196" fill="#ffe215" stroke="none" /><line stroke="#e1ed5e" stroke-width="0.3" x1="26.63291911575756" x2="22.317208475507996" y1="142.92168965132927" y2="145.44649492493687" /><path d="M 25.769776987707644 143.4266507060508 a86.0,86.0 0 0,1 -11.730757126820373,-40.83630448921669" fill="none" id="id9" stroke="none" /><text fill="#e1ed5e" style="font-size:6.75px; font-family:Arial;" text-anchor="middle"><textPath startOffset="21.46611528233685" xlink:href="#id9">September</textPath></text><path d="M 81.87401531095188 110.60418214915194 l -22.284606545578274 13.03708631477969 a46.81800357251207,46.81800357251207 0 0,0 -0.40095830888796036,-0.6991046084226034 l 22.50571685061861 -12.65156186049878" fill="#ff0000" stroke="none" /><path d="M 81.18737489456691 109.33194174019688 l -32.69143175604771 16.216478818947703 a57.49251835028249,57.49251835028249 0 0,0 -0.43214318050526673,-0.8903429484228758 l 32.9657281931677 -15.651346914559543" fill="#fff016" stroke="none" /><path d="M 79.1416061653843 102.43462659150553 l -32.692659259629096 3.8159418319367946 a53.91460741875767,53.91460741875767 0 0,0 -0.09965909407002317,-0.9227194385923582 l 32.75350065520018 -3.2526260714596544" fill="#ffa40f" stroke="none" /><path d="M 79.07016306316243 101.71520430193888 l -31.901054751933618 2.614297785120338 a53.00799661327075,53.00799661327075 0 0,0 -0.06669779470627954,-0.9100384171225161 l 31.941329105304234 -2.0647862315010617" fill="#ff900d" stroke="none" /><path d="M 79.0095281055655 100.63252640178507 l -32.025111717579826 0.965043986784155 a53.03964872497664,53.03964872497664 0 0,0 -0.01964471728533774,-0.9128128198152697 l 32.03697849755017 -0.4136413511787564" fill="#ff910d" stroke="none" /><line stroke="#e1ed5e" stroke-width="0.3" x1="15.007084014347285" x2="10.007500721073583" y1="101.09737516637583" y2="101.16192664675087" /><path d="M 14.007167355692545 101.11028546245083 a86.0,86.0 0 0,1 10.666146001902534,-42.60595125391555" fill="none" id="id10" stroke="none" /><text fill="#e1ed5e" style="font-size:6.75px; font-family:Arial;" text-anchor="middle"><textPath startOffset="22.20632615414155" xlink:href="#id10">October</textPath></text><path d="M 79.01574976396665 99.18683210126434 l -45.596376872002494 -1.7669208837062544 a66.63059930861046,66.63059930861046 0 0,0 0.05427662549570734,-1.1456937794948499 l 45.55920663827329 2.551525769824113" fill="#62ff29" stroke="none" /><path d="M 79.03285615573316 98.82574320788736 l -41.61461124762761 -2.3306102286323425 a62.67982261633295,62.67982261633295 0 0,0 0.0696026866362429,-1.0767227553843421 l 41.568327969986946 3.046592048269696" fill="#a9ff21" stroke="none" /><path d="M 79.12142395522702 97.74499172005258 l -48.209456698049124 -5.206903181171884 a69.48982940637316,69.48982940637316 0 0,0 0.1386806771553298,-1.1881313510045446 l 48.112685667890204 6.035978270501291" fill="#32ff2f" stroke="none" /><path d="M 79.26566170972629 96.67025291283419 l -58.94790363658486 -9.466499855484813 a80.70318218204109,80.70318218204109 0 0,0 0.23207214006513177,-1.3697029075150615 l 58.77621963499951 10.479788551315702" fill="#46fff8" stroke="none" /><path d="M 79.32604984820605 96.31383870115002 l -62.021850455381816 -11.05848389654995 a84.0,84.0 0 0,0 0.2660571043605535,-1.4212876901497093 l 61.8223076271114 12.124449664162231" fill="#4dd2ff" stroke="none" /><line stroke="#e1ed5e" stroke-width="0.3" x1="26.266209847984243" x2="21.928928074336255" y1="57.711370442889674" y2="55.22380399835377" /><path d="M 25.398753493254645 57.213857153982495 a86.0,86.0 0 0,1 29.58750427330803,-30.492523968695096" fill="none" id="id11" stroke="none" /><text fill="#e1ed5e" style="font-size:6.75px; font-family:Arial;" text-anchor="middle"><textPath startOffset="21.46611528233685" xlink:href="#id11">November</textPath></text><line stroke="#e1ed5e" stroke-width="0.3" x1="56.762969772571076" x2="54.21961505331055" y1="26.818313649435495" y2="22.513508569990535" /><path d="M 56.25429882871897 25.957352633546506 a86.0,86.0 0 0,1 42.265352541879196,-11.944610805530505" fill="none" id="id12" stroke="none" /><text fill="#e1ed5e" style="font-size:6.75px; font-family:Arial;" text-anchor="middle"><textPath startOffset="22.20632615414155" xlink:href="#id12">December</textPath></text></svg>